<svg xmlns="http://www.w3.org/2000/svg" viewBox="0 0 468.3 467.42"><title>1Asset 1</title><g id="Layer_2" data-name="Layer 2"><g id="Layer_1-2" data-name="Layer 1"><path d="M468.25,283.33c.49,35.72-2.45,65.78-12.82,94.73-19.23,53.68-57.13,84.21-114.06,88.79-23.15,1.87-45.15-5.55-65.3-17.19-29.54-17.06-47.12-43.53-57.69-75.17-9.46-28.31-12.43-57.59-11.51-87.26,2.22-72,21.24-139.61,55.35-202.94,14.86-27.6,32.75-53,57.38-73.05,4.13-3.35,8.77-6.06,13-9.32,3.36-2.59,6.09-2.48,9.76-.15,20.81,13.2,37,31,50.91,51,32.51,46.76,52.52,98.84,65,154.08C464.34,233.71,467.68,261,468.25,283.33Z"/><path d="M249.34,467.42c-21,.05-39.58-4.7-57.39-12.69-26.51-11.89-49.38-29.08-69.53-49.71Q34.08,314.55,6,191.09c-6.12-26.79-8.29-53.94-3-81.33,1.28-6.55,3.8-9.77,10.7-11.09,23.81-4.57,47.47-3.41,71,.88,41.63,7.58,80.61,22.7,117.87,42.49.72.38,1.38.85,2.08,1.29-3.68,12.59-7.56,24.94-10.89,37.43-11.54,43.41-17.63,87.52-15.48,132.49,1.9,39.79,10.41,77.84,31.87,112.12a146.58,146.58,0,0,0,35,38.74C246.26,464.9,247.26,465.74,249.34,467.42Z"/></g></g></svg>