<svg xmlns="http://www.w3.org/2000/svg" viewBox="0 0 131.25 150"><title>1Asset 42</title><g id="Layer_2" data-name="Layer 2"><g id="Layer_1-2" data-name="Layer 1"><path d="M35.72,150c-6.54-1.61-10.83-6.15-14.55-11.33-6.44-9-10.65-19-14.17-29.41A138.67,138.67,0,0,1,.39,81.43c-1.83-15.22,2.69-28,15.29-37.12C26.31,36.64,38,35.18,50.11,40.85c3,1.42,6.07,2.89,9.09,4.37a13.7,13.7,0,0,0,12.8,0c2.66-1.32,5.38-2.52,8-3.89,18-9.37,37.28-.16,45.65,13.77a39,39,0,0,1,5.17,26,145.92,145.92,0,0,1-15.73,49.33,77.78,77.78,0,0,1-6.07,9.48c-3.46,4.7-7.62,8.62-13.56,10.06H89.92c-1.82-.32-3.65-.57-5.45-1A28.44,28.44,0,0,1,74,144a14.16,14.16,0,0,0-8.48-3.13A14.16,14.16,0,0,0,57.19,144a28.45,28.45,0,0,1-11.6,5.29c-1.44.25-2.87.47-4.31.71Zm86.1-73a32.08,32.08,0,0,0-2.27-13.35c-5-12.26-20.75-21.94-35.86-13.75C81,51.43,78.09,52.7,75.26,54a22.12,22.12,0,0,1-19.38,0c-3.45-1.6-6.85-3.3-10.31-4.89A21.43,21.43,0,0,0,37,46.88C22.26,46.59,9.67,58.94,9.36,74a68.18,68.18,0,0,0,1.77,16.11A127.52,127.52,0,0,0,27,130.3a64.18,64.18,0,0,0,6.95,8.61,5.2,5.2,0,0,0,3.18,1.61,16.26,16.26,0,0,0,10.33-2.4A70.31,70.31,0,0,1,57.54,133a20.71,20.71,0,0,1,11.08-1.25c5.43.75,10.18,3.16,14.78,6a20.55,20.55,0,0,0,5.1,2.42c4.54,1.32,8.48.34,11.37-3.69,1.48-2.06,3.1-4,4.43-6.17a126.16,126.16,0,0,0,13.16-30.06C119.9,92.22,121.63,84.07,121.82,77Z"/><path d="M85.52,0c1.49.78,2.84,1.64,3.32,3.43a3.87,3.87,0,0,1-1.37,4.4A73.49,73.49,0,0,0,75.74,19.22a27.33,27.33,0,0,0-6.06,15.24c-.11,1.57-2,2.95-3.94,3A4.71,4.71,0,0,1,61,32.1c.36-2.2.81-4.39,1.3-6.57a25.84,25.84,0,0,1,6.33-12.19C71.8,10,75.28,6.82,78.71,3.64c1.4-1.31,3-2.43,4.47-3.64Z"/></g></g></svg>