<svg xmlns="http://www.w3.org/2000/svg" viewBox="0 0 150.49 150"><title>1Asset 15</title><g id="Layer_2" data-name="Layer 2"><g id="Layer_1-2" data-name="Layer 1"><path d="M60.84,150H52c-1.16-.18-2.3-.38-3.46-.54A56.28,56.28,0,0,1,1.74,107.72C1,104.81.57,101.81,0,98.85V88.26c.22-1.34.4-2.68.67-4C5,62.49,17.56,47.68,38.43,40.07A109.3,109.3,0,0,0,56.5,31.69c8.78-5.16,16.15-12,23.29-19.17C89.48,2.78,101.31-1.25,115,.34a39.43,39.43,0,0,1,34.1,29.89c.72,2.82,1,5.76,1.44,8.65v2.64c-.08.53-.2,1-.24,1.58A40.92,40.92,0,0,1,144.1,62c-2.73,4.43-6.54,7.9-10.14,11.56a107.52,107.52,0,0,0-24.45,38.8C102.44,131.5,88.8,143.53,69,148.54,66.36,149.22,63.58,149.52,60.84,150Zm32-68.74c.06-5.58-1.24-11.13-5.17-15.76-6.12-7.2-14.16-9.16-23.1-7.63A40.83,40.83,0,0,0,31.33,93.06c-.92,8.37,1.52,15.76,8.35,21.16,5.5,4.35,11.94,5.41,18.73,4.55C76.29,116.53,91.84,99.68,92.79,81.26Z"/></g></g></svg>