<svg xmlns="http://www.w3.org/2000/svg" viewBox="0 0 153.59 147.16"><title>1Asset 40</title><g id="Layer_2" data-name="Layer 2"><g id="Layer_1-2" data-name="Layer 1"><path d="M4.93,126h0c.47-.47,16.75-24,35.22-31.53A100.39,100.39,0,0,0,60.44,83.07c.31-.22.6-.47,1-.81A14.09,14.09,0,0,0,53,80.8a39.68,39.68,0,0,0-13.51,4.07c-2.77,1.33-5.43,2.87-8.08,4.41-1.29.75-2.51,1.1-3.83.24a3.33,3.33,0,0,1-1.36-3.58c1-8.56,3.75-16.43,9.29-23.16A30.08,30.08,0,0,1,55.65,52a41.05,41.05,0,0,1,18,1.23C85,56.87,91,65.06,92.83,76.57a20,20,0,0,1,.33,3.78c0,1.11.44,1.49,1.42,1.76,7.06,2,13.68,4.92,19.31,9.73,8.39,7.16,11.39,16.13,8.85,26.91-1.44,6.14-3.59,11.94-7.64,16.9A30.51,30.51,0,0,1,93.83,146.9c-.43,0-.85.17-1.27.26H85.82c-1.63-.24-3.28-.41-4.9-.73a3.11,3.11,0,0,1-2.18-5c.18-.3.38-.57.56-.86,4.46-7.14,8.44-14.51,10.46-22.76.24-1,.34-2,.54-3.3-.52.37-.73.49-.92.64a143.94,143.94,0,0,1-20.83,13.29c-16.57,8.66-36.81,13.3-41.47,14.21C13.46,145.36,4.13,147.1,1,142.54S2.73,129.47,4.93,126Z"/><path d="M141.49,47.27a190.14,190.14,0,0,1-22.61,38.16c-.35.46-.72.91-1.16,1.46L116,85.57a56.93,56.93,0,0,0-15.61-8.18A1.66,1.66,0,0,1,99,75.92C97.6,66.74,94.92,61.4,88.25,54.4L89.14,53C98.75,38.05,104,32.34,124,8.92a25.21,25.21,0,0,1,5.86-5.17A25.54,25.54,0,0,1,136.93.68a13,13,0,0,1,13.25,2.93c3.89,4,3.44,9.44,3.35,10.33a13.29,13.29,0,0,1-1.39,4.74C151.71,19.42,145.31,38.73,141.49,47.27Z"/></g></g></svg>