<svg xmlns="http://www.w3.org/2000/svg" viewBox="0 0 150 150"><title>1Asset 13</title><g id="Layer_2" data-name="Layer 2"><g id="Layer_1-2" data-name="Layer 1"><path d="M78.52,150c-1.09-.24-2.18-.45-3.26-.72a25,25,0,0,1,2.28-49c.38-.06.78,0,1.16-.11a5.76,5.76,0,0,1,6.21,2.18c4.67,5.49,13.32,5.17,18.15-.2a12.31,12.31,0,0,0-1.56-18A3.55,3.55,0,0,1,100,80.6a25,25,0,0,1,49.77-3,6.66,6.66,0,0,0,.27,1v7.32c-.38,2.59-.7,5.2-1.15,7.78-4.8,27.73-27.5,50.43-55.23,55.23-2.58.45-5.19.77-7.78,1.15Z"/><path d="M71.48,0c1.56.38,3.14.67,4.66,1.14a24.93,24.93,0,0,1,17.61,23.7A68.77,68.77,0,0,1,37.22,92.63a52.24,52.24,0,0,1-15.73.86A25,25,0,0,1,.29,72.59,11.34,11.34,0,0,0,0,71.48V65.92c.34-1.41.61-2.84,1-4.23a25.14,25.14,0,0,1,23.43-18,3.49,3.49,0,0,1,3.36,1.51,11.7,11.7,0,0,0,12.48,4.46,11.74,11.74,0,0,0,9.38-9.38,11.7,11.7,0,0,0-4.46-12.48,3.51,3.51,0,0,1-1.51-3.36,25.1,25.1,0,0,1,19-23.7C63.75.48,64.84.25,65.92,0Z"/></g></g></svg>