<svg xmlns="http://www.w3.org/2000/svg" viewBox="0 0 310.22 150"><title>1Asset 12</title><g id="Layer_2" data-name="Layer 2"><g id="Layer_1-2" data-name="Layer 1"><path d="M83.88,15.73c0,16.47,0,32.09,0,47.72,0,5.29,3.11,8.92,7.84,9.26,5.53.41,9.37-3.31,9.39-9.28,0-17.09.07-34.19-.05-51.28,0-2.53.68-3.65,3.14-4.41A173.86,173.86,0,0,1,146.35.13V4q0,29.88,0,59.78c0,5.5,3.12,9.24,7.9,9.61,5.6.44,9.52-3.41,9.53-9.54.05-14.16,0-28.32,0-42.48,0-6.9,0-13.81,0-21.32,5.38.56,10.51.7,15.47,1.69,9,1.79,17.94,4.12,26.91,6.15,2.24.51,2.92,1.66,2.9,3.95-.1,17.93-.07,35.87,0,53.8a15.79,15.79,0,0,0,.65,5.24A8.4,8.4,0,0,0,219,76.14a8.54,8.54,0,0,0,7.23-8.62c.06-15.1,0-30.2,0-45.31V16.33a10.33,10.33,0,0,1,1.89.51c38,19.46,64.65,48.64,77,90a128.9,128.9,0,0,1,5,35.37c.07,5-3,7.78-8.53,7.78H9.76C2.15,150-.3,147.56,0,140,2.31,88,27.67,50,71,22.88,74.93,20.4,79.15,18.33,83.88,15.73Z"/></g></g></svg>