<svg xmlns="http://www.w3.org/2000/svg" viewBox="0 0 150 150"><title>1Asset 16</title><g id="Layer_2" data-name="Layer 2"><g id="Layer_1-2" data-name="Layer 1"><path d="M37.21,0h2c.55.15,1.1.32,1.66.46C50.5,2.84,56.38,9.08,59.48,18.22,62,25.52,62,33.07,61.69,40.66,61.4,47.88,61,55.1,61,62.31A38.53,38.53,0,0,0,66.9,83.17C72.21,91.48,80,96.5,89,99.89s18.46,4.79,28.06,5.33a60.06,60.06,0,0,1,12.31,1.48c7.26,2,12.16,6.65,13.48,14.38.77,4.51-.13,8.93-.81,13.37a7.37,7.37,0,0,1-3.42,5.1c-7.15,5.23-15.33,7.78-23.92,9.27-3,.52-6,.79-9,1.18h-10a9.4,9.4,0,0,0-1.26-.26,85.76,85.76,0,0,1-22.7-4.65,119.32,119.32,0,0,1-54.59-39A77.09,77.09,0,0,1,1.08,69.61C.64,66.83.36,64,0,61.23v-10c.09-.57.22-1.14.27-1.72.69-8.23,2-16.34,5-24.09C9.44,14.71,16.55,6.76,27.54,2.71,30.67,1.56,34,.89,37.21,0Z"/><path d="M52.44,0c3.15,1,6.48,1.58,9.4,3C72.71,8.39,78.61,17.36,80,29.35c.81,7.06-.51,14-1.29,21a73.84,73.84,0,0,0-.57,13.11c.48,6.86,4.25,12.19,9.11,16.84,7.29,7,16.05,10,26,10.08a131,131,0,0,1,13.6.36c10.1,1.1,16.84,6.91,20.74,16.07,1.13,2.64,1.61,5.57,2.39,8.37v5.56c-.29,1.68-.5,3.37-.88,5s-1,3.46-1.48,5.18l-.4-.11c.2-1.69.44-3.37.59-5.07.44-4.89.14-9.67-2.64-14a24.31,24.31,0,0,0-16.84-10.89c-6.61-1.14-13.37-1.46-20.06-2.16S95.24,97,89.12,94.39c-9.33-4-16.55-10.22-20.52-19.76-2.69-6.49-3.17-13.33-2.83-20.26.29-5.75.74-11.49,1-17.24a56.08,56.08,0,0,0-2.58-20.79C61.87,9.71,58.59,3.75,51.94.42c-.16-.08-.25-.28-.38-.42Z"/></g></g></svg>