<svg xmlns="http://www.w3.org/2000/svg" viewBox="0 0 210.45 150"><title>1Asset 2</title><g id="Layer_2" data-name="Layer 2"><g id="Layer_1-2" data-name="Layer 1"><path d="M209,51.26c-1.59,5.26-2.79,10.67-4.85,15.75-13.08,32.3-36.83,52-70.91,59.07a79.13,79.13,0,0,1-15.14,1.48c-10.54.13-21.15.48-31.63-.39-29.4-2.44-52.6-16.14-69.7-40.11A90.25,90.25,0,0,1,2.16,53.33C2,52.8,2,52.26,1.88,51.71A4.84,4.84,0,0,1,2,50.8,73.08,73.08,0,0,0,21,61.48C35,67,49.5,70.17,64.3,72.25a289.16,289.16,0,0,0,57.77,2.35c21.2-1.26,42.11-4.23,62.28-11.23,8.29-2.88,16.26-6.44,23.2-12a5.24,5.24,0,0,1,.77-.43Z"/><path d="M108.51,0c19.78.14,42.36,2.24,64.43,8.43,8.74,2.45,17.31,5.44,25,10.3a43.47,43.47,0,0,1,8.71,7c5,5.34,5.06,11-.14,16.21A52.16,52.16,0,0,1,195,50.56c-11.05,6.07-23.12,9.37-35.4,11.86a279.64,279.64,0,0,1-67.66,4.86c-18.48-.8-36.73-3.12-54.58-8.13-8.44-2.37-16.74-5.22-24.22-9.86a48.39,48.39,0,0,1-9.78-7.9C-1.18,36.59-1,31.28,3.22,26.18c4-4.87,9.37-8,15-10.64,12.66-6,26.13-9.37,39.87-11.73C73.75,1.11,89.56,0,108.51,0ZM75.27,26.29A11.26,11.26,0,1,0,63.9,15,11.29,11.29,0,0,0,75.27,26.29ZM146.52,30A11.26,11.26,0,1,0,135.23,18.7,11.29,11.29,0,0,0,146.52,30ZM108.87,33.8A11.26,11.26,0,1,0,97.69,22.58,11.33,11.33,0,0,0,108.87,33.8Zm-86.34-15A11.26,11.26,0,1,0,33.86,30.1,11.28,11.28,0,0,0,22.53,18.79Zm180.27,15a11.26,11.26,0,1,0-11.13,11.28A11.29,11.29,0,0,0,202.8,33.78ZM71.4,41.41A11.26,11.26,0,1,0,59.93,52.57,11.27,11.27,0,0,0,71.4,41.41Zm60-7.6a11.26,11.26,0,1,0,11.33,11.07A11.26,11.26,0,0,0,131.4,33.81Zm33.93,26.27A11.26,11.26,0,1,0,154,49,11.29,11.29,0,0,0,165.33,60.08Zm-60.14-7.43A11.26,11.26,0,1,0,94,63.83,11.29,11.29,0,0,0,105.19,52.65Z"/><path d="M146.38,131.17V150H64.08V131.18A196.64,196.64,0,0,0,146.38,131.17Z"/><path d="M75.25,11.28a3.75,3.75,0,1,1-3.84,3.6A3.78,3.78,0,0,1,75.25,11.28Z"/><path d="M146.47,15a3.75,3.75,0,1,1-3.73,3.71A3.76,3.76,0,0,1,146.47,15Z"/><path d="M108.93,26.28a3.75,3.75,0,1,1,3.76-3.66A3.77,3.77,0,0,1,108.93,26.28Z"/><path d="M26.35,30a3.75,3.75,0,1,1-3.71-3.72A3.78,3.78,0,0,1,26.35,30Z"/><path d="M191.62,30.05a3.75,3.75,0,1,1-3.83,3.61A3.79,3.79,0,0,1,191.62,30.05Z"/><path d="M60.19,37.56A3.75,3.75,0,1,1,56.4,41.2,3.78,3.78,0,0,1,60.19,37.56Z"/><path d="M131.41,48.81a3.75,3.75,0,1,1,3.81-3.62A3.77,3.77,0,0,1,131.41,48.81Z"/><path d="M169,48.81a3.75,3.75,0,1,1-3.7-3.74A3.78,3.78,0,0,1,169,48.81Z"/><path d="M97.68,52.68a3.75,3.75,0,1,1-3.58-3.85A3.78,3.78,0,0,1,97.68,52.68Z"/></g></g></svg>