<svg xmlns="http://www.w3.org/2000/svg" viewBox="0 0 150 150"><title>1Asset 23</title><g id="Layer_2" data-name="Layer 2"><g id="Layer_1-2" data-name="Layer 1"><path d="M94.34,0h8.2a8.66,8.66,0,0,0,1.12.26A51.31,51.31,0,0,1,148.21,38c.81,3.09,1.2,6.3,1.79,9.45v7.91a9.21,9.21,0,0,0-.26,1.13,50.19,50.19,0,0,1-16.59,32.93c-7.21,6.58-15.6,11.34-24.5,15.22a91.19,91.19,0,0,1-28.39,7.64c-8.71.79-17.13-.14-24.73-4L41.89,121.94l.47.5c4.21,4.64,5.61,10,3.75,16s-6.11,9.7-12.22,11.22c-.36.09-.72.23-1.08.34H28.13a1.29,1.29,0,0,0-.36-.23c-7.31-1.51-11.71-6-13.34-13.2-.2-.87-.68-.88-1.29-1A16.25,16.25,0,0,1,.73,124.36c-.28-.82-.49-1.66-.73-2.48v-4.69a8,8,0,0,0,.31-.94,16.36,16.36,0,0,1,28.07-7.83l6.74-6.8c2.23-2.25,4.48-4.48,6.68-6.68-4.44-9.19-4.87-18.33-3.89-26.53,2-17,8.38-32.27,18.26-46.14C63.81,11.54,74,4.38,86.89,1.33,89.34.75,91.85.44,94.34,0Z"/></g></g></svg>