<svg xmlns="http://www.w3.org/2000/svg" viewBox="0 0 150 101.73"><title>1Asset 28</title><g id="Layer_2" data-name="Layer 2"><g id="Layer_1-2" data-name="Layer 1"><path d="M74.94,101.47c-5.45,0-10.91.3-16.34-.06A59.88,59.88,0,0,1,25.13,88.33,63.38,63.38,0,0,1,.85,47.8,71.19,71.19,0,0,1,.27,30.42a2.56,2.56,0,0,0-.05-.62,12.25,12.25,0,0,1,3.07-10c3.37-4.11,7.82-6.77,12.53-9C25.33,6.33,35.44,3.9,45.75,2.27A188.87,188.87,0,0,1,91.5.72c13.75,1.18,27.26,3.54,40.09,8.88a42.64,42.64,0,0,1,13.09,8c3.6,3.36,5.76,7.21,5.25,12.47-.43,4.39.11,8.86-.21,13.27a60.12,60.12,0,0,1-12.65,32.82C126.65,89.73,113,98.25,96,100.88c-6,.92-12.13.6-18.2.83-1,0-1.9,0-2.86,0Zm67.4-60.87-.93.48c-4.08,2.1-8,4.55-12.27,6.23-11.43,4.54-23.46,6.62-35.67,7.76a182.76,182.76,0,0,1-59-3.58c-9.25-2.16-18.21-5.14-26.13-10.63a3,3,0,0,0-.72-.18c.35,2.68.61,5.21,1,7.7C12.5,72.38,33.22,92,57.42,93.63a227.39,227.39,0,0,0,33.93.05c21.74-1.76,37.29-13.1,46.44-33A53.22,53.22,0,0,0,142.34,40.6ZM75.14,7.35C67.44,7.87,59.72,8.24,52,9a115.31,115.31,0,0,0-28.62,6.09C19,16.63,14.76,18.5,11.2,21.63c-4.64,4.09-4.65,8.61,0,12.69a13.43,13.43,0,0,0,2.66,2A95.22,95.22,0,0,0,23.68,41c12.29,4.48,25.14,6.13,38.1,7a204.19,204.19,0,0,0,41.64-1.52c9.29-1.32,18.47-3.16,27.07-7a38.57,38.57,0,0,0,8.37-5.06c4.8-3.89,4.73-8.58.07-12.61a29.7,29.7,0,0,0-4.83-3.31,63.91,63.91,0,0,0-16-5.95C104,8.89,89.64,7.75,75.14,7.35Z"/><path d="M72,37.35l-6.46-3.41c1.76-7.18.43-10.65-4.92-12.89-2.91-1.22-6-1.44-8.37.77-2.08,1.93-3.54,4.52-5.4,7-1-.68-2.27-1.58-3.59-2.42-1.58-1-3.26-1.4-4.91-.23-1.81,1.27-3.17,3-2.86,5.31.17,1.29,1.22,2.45,2.05,4l-4,5.8a12.33,12.33,0,0,1-5.13-9.21c-.82-8.81,5.92-14.89,15-13.52a2.14,2.14,0,0,0,2-.68c6.29-5.87,15.93-6.52,22.1-1.53S75.69,31,72,37.35Z"/><path d="M107.48,41.71l-6.71-3.54a6.05,6.05,0,0,0-.38-6.33,6.37,6.37,0,0,0-2.85-2.31c-3.67-1.38-6.38,0-8.52,4.19l-7.13-1.88c.15-.53.24-1,.4-1.4,2.13-5.55,9.89-11.38,17.9-7.84.92.4,1.29,0,1.83-.55,4.23-4.6,10.09-5.48,14.7-2.27A12,12,0,0,1,122,29.17h-7.39c-.71-3-1.88-3.9-4.66-3.72a2.56,2.56,0,0,0-2.3,3.95C109.68,33.5,109.3,37.54,107.48,41.71Z"/></g></g></svg>