<svg xmlns="http://www.w3.org/2000/svg" viewBox="0 0 114.53 150"><title>1Asset 9</title><g id="Layer_2" data-name="Layer 2"><g id="Layer_1-2" data-name="Layer 1"><path d="M114.53,91.37c-.1,10.41-1.29,19.64-5,28.38-5.83,13.78-16.09,22.78-30.33,27a74.61,74.61,0,0,1-45.37-.51c-18.2-6-28.43-19.24-32.2-37.69C-1.5,93.13.18,77.92,4.05,62.89c4.15-16.09,10.64-31.13,21.27-44A71.47,71.47,0,0,1,37.57,7.08C50.24-2.42,64.18-2.27,77,7c9.32,6.71,16,15.68,21.48,25.61A127.46,127.46,0,0,1,114.53,91.37Zm-10.19-.2A118.93,118.93,0,0,0,87.13,33.41c-4.21-7-9.27-13.35-16-18.12-9.18-6.47-18.49-6.46-27.68,0a52.19,52.19,0,0,0-12.19,12.4C22.14,40.3,16.44,54.39,13,69.43c-2.87,12.59-4,25.28-1.2,38C15.16,122.55,24,132.7,39.07,137a66.94,66.94,0,0,0,34.92.43c13-3.24,22.29-11,27-23.75C103.51,106.78,104.23,99.59,104.34,91.17Z"/></g></g></svg>