<svg xmlns="http://www.w3.org/2000/svg" viewBox="0 0 82.27 150"><defs><style>.cls-1{fill:#fff;}</style></defs><title>1Asset 43</title><g id="Layer_2" data-name="Layer 2"><g id="Layer_1-2" data-name="Layer 1"><path class="cls-1" d="M43.29,110.55h-4.4v2.09c0,10.23,0,20.45,0,30.67a6.52,6.52,0,0,1-9.06,6.21c-2.66-1-4.1-3.19-4.1-6.46q0-15.08,0-30.16c0-2.47,0-2.47-2.49-2.46H9.87c-4.17,0-5.81-2.55-4-6.29C11.92,91.31,18,78.5,24.06,65.64a3.6,3.6,0,0,0,0-2.66c-.2-.44-1.45-.75-2.06-.56a3.32,3.32,0,0,0-1.54,1.65c-3.36,6.61-6.65,13.25-10,19.87A5.31,5.31,0,0,1,5,87,5.48,5.48,0,0,1,.07,82.61,6.48,6.48,0,0,1,.56,79q9.77-19.78,19.72-39.49c2.66-5.27,7.13-7.81,13-8A9.48,9.48,0,0,0,35,31.38a17.23,17.23,0,0,1-8.69-8.09,15.78,15.78,0,0,1-1-11.83,16.22,16.22,0,0,1,31.2.63c2.06,7.69-1.17,14.11-9.78,19.28,1.45.12,2.79.16,4.1.36A14.25,14.25,0,0,1,62,39.67C68.58,52.75,75.11,65.87,81.64,79a5.24,5.24,0,0,1-2.4,7.27c-3.06,1.52-6,.65-7.56-2.35C68.32,77.3,65.05,70.65,61.7,64c-.32-.63-.82-1.41-1.4-1.59a2.32,2.32,0,0,0-2.11.43A3,3,0,0,0,58,65.33c1.86,4.17,3.87,8.26,5.82,12.38C67.94,86.47,72,95.29,76.31,104c1.65,3.33,0,6.71-4.06,6.53-5.18-.23-10.37-.06-15.84-.06v2.11q0,15.51,0,31a6.19,6.19,0,0,1-4.88,6.2c-3.29.72-6.4-.61-7.61-3.44a8.68,8.68,0,0,1-.59-3.32c0-10.17,0-20.33,0-30.5Z"/></g></g></svg>