<svg xmlns="http://www.w3.org/2000/svg" viewBox="0 0 298.28 150"><title>1Asset 7</title><g id="Layer_2" data-name="Layer 2"><g id="Layer_1-2" data-name="Layer 1"><path d="M88.08,147.36c27.07-16.91,42.11-40.67,42.14-72.32,0-31.48-14.94-55.17-41.75-72.17A95.14,95.14,0,0,1,114.07,0c24.79.66,47.24,9.05,68.57,21,19.83,11.11,37.69,24.9,54.27,40.38,1.46,1.37,2.91,2.75,4.51,4.27,1-.94,1.91-1.74,2.75-2.59Q267,40.3,289.77,17.5a8.87,8.87,0,0,1,1.92-1.86c1.49-.77,3.24-2,4.6-1.66.87.18,1.75,2.69,1.77,4.17.16,11.31.12,22.62.12,33.93q0,38.63-.05,77.25c0,2.44,1,6-2,6.7-1.74.39-4.5-1.81-6.18-3.47-15.14-14.94-30.13-30-45.18-45.06-.86-.86-1.75-1.67-3.29-3.13a26.33,26.33,0,0,1-2.21,3.1c-22.37,22.75-47.5,41.49-77.54,53-22.57,8.64-45.8,11.89-69.83,7.82-.77-.13-1.54-.27-2.3-.44C89.15,147.72,88.74,147.56,88.08,147.36Z"/><path d="M114.3,75.13a66.84,66.84,0,0,1-46.45,63.26,9.33,9.33,0,0,1-7.89-.56C33.56,124.08,14.31,103.33.45,77.3a5,5,0,0,1,0-4.22C16.34,47.7,36.3,26.5,63.14,12.49a8,8,0,0,1,5.57-.5C95.64,20.67,114.47,46.86,114.3,75.13ZM71,67.18A14.3,14.3,0,1,0,56.7,81.52,14.21,14.21,0,0,0,71,67.18Z"/></g></g></svg>