<svg xmlns="http://www.w3.org/2000/svg" viewBox="0 0 155.2 150"><title>1Asset 22</title><g id="Layer_2" data-name="Layer 2"><g id="Layer_1-2" data-name="Layer 1"><path d="M102.1,108.22c-2-.84-3.74-1.63-5.53-2.29a14.21,14.21,0,0,0-3-.67c-1-.13-1.31-.52-1.42-1.56a106.89,106.89,0,0,0-1.52-11.32,27.18,27.18,0,0,0-7.9-14.26c-.13-.12-.24-.27-.52-.6,1.28-.25,2.4-.49,3.53-.67A21.62,21.62,0,0,1,101,80a26.59,26.59,0,0,1,12,17c.86,3.48,1.76,7,2.77,10.39a11.7,11.7,0,0,0,5.35,7c2.34,1.43,4.24,3.47,4.09,6.58a4,4,0,0,1-.45,1.72c-1.9,3.4-4.88,4.43-8.43,2.84-1.54-.69-3-1.62-4.48-2.39s-1.89-2-2.3-3.45a22.93,22.93,0,0,0-4.15-8.12,3.11,3.11,0,0,1-.54-1.44,51.65,51.65,0,0,0-3.19-12,1.78,1.78,0,0,0-.75-.92C101.28,100.83,101.68,104.48,102.1,108.22Z"/><path d="M70.47,71.61c1.53-1,3.12-2.13,4.81-3.08a35.7,35.7,0,0,1,17.48-4.91A29.23,29.23,0,0,1,110.93,70a52.89,52.89,0,0,1,6.3,5.77c3.83,4,6,9.09,7.91,14.19a103,103,0,0,1,3.3,10.45,25.9,25.9,0,0,1,.71,6c.06,2.5-2.4,5-4.88,5.32a4.41,4.41,0,0,1-4.79-2.68,62.13,62.13,0,0,1-2.59-7.81c-1.13-4.14-2.1-8.33-4-12.23a27.74,27.74,0,0,0-12-12.22c-6.54-3.66-13.45-3.64-20.46-1.59a2.9,2.9,0,0,1-2.23-.24C75.72,73.77,73.14,72.74,70.47,71.61Z"/><path d="M89.29,104.53a21.74,21.74,0,0,1-3.43-1.87c-3.24-2.66-6.42-5.38-10.31-7.12-.31-.14-.51-.67-.63-1.07-.37-1.22-.59-2.5-1-3.7-1.46-4.09-4.78-6-8.68-7.06-4.68-1.32-9.13-.36-13.45,1.55C45.51,88,40.21,92.21,35.08,96.63c-1.89,1.63-3.7,3.33-5.72,5.15a20.26,20.26,0,0,0-5.3-8c1.73-1.62,3.33-3.27,5.09-4.75,3-2.54,6.07-5,9.22-7.43a41.46,41.46,0,0,1,10.09-5.39A34.72,34.72,0,0,1,74.15,76c6.15,2.3,10,6.94,12.43,12.9a42.45,42.45,0,0,1,2.79,14.62C89.38,103.74,89.34,103.93,89.29,104.53Z"/><path d="M44.24,108a26.31,26.31,0,0,1,10-9c9.22-4.5,18.09-3.7,26,2.79a28.11,28.11,0,0,0,14,6.44c5.91.93,9.69,4.75,11.92,10.18a21.57,21.57,0,0,1,1.71,9.49c-.18,3-1.35,4.55-3.86,5.14a1.94,1.94,0,0,1-.33.07c-1.93.28-2.22,0-2.47-2A15,15,0,0,0,92,118.7c-3.42-1.56-7-2.57-10.46-4a42,42,0,0,1-9.39-6,16.31,16.31,0,0,0-7.79-3.4,11.41,11.41,0,0,0-9.39,3,15.73,15.73,0,0,0-2.11,2.21,1.12,1.12,0,0,1-1.6.41C49,109.85,46.7,109,44.24,108Z"/><path d="M102.76,27.77c7.6-1.12,15-1.83,22.39-.23a20.43,20.43,0,0,1,9.51,5,10.83,10.83,0,0,1,3.07,5.06,15.9,15.9,0,0,0,3.72,6.52c2.11,2.16,4.4,4.13,6.58,6.21,1.34,1.28,2.61,2.63,4,3.9,2.93,2.74,3.35,7.23,1.93,10.66a5.56,5.56,0,0,1-5.09,3.33,2.42,2.42,0,0,1-1.47-.61c-3.77-3.71-7.49-7.47-11.24-11.19a11.25,11.25,0,0,1-3.41-6.37,18.73,18.73,0,0,0-3.8-8.25c-2.42-3.26-5.89-4.62-9.72-5.21a34.37,34.37,0,0,0-12.5.54c-.63.14-1.2.18-1.28-.61A25.32,25.32,0,0,0,102.76,27.77Z"/><path d="M33.79,136.32c.41-2.6.72-5.22,1.26-7.78a5.08,5.08,0,0,0-1.55-5.24c-2.18-1.9-4.5-3.64-6.85-5.33s-5-3.64-6.26-6.54c-.86-2-1.48-4-2.24-6a12.2,12.2,0,0,0-7.9-7.61c-2.08-.71-4.17-.51-6.27-.58-1.54-.06-2-.25-2.35-1.72a7.34,7.34,0,0,1,.44-5.29,1.75,1.75,0,0,1,1.19-.82c7.75-.27,14.62,1.78,20,7.7A14.21,14.21,0,0,1,27,103.9c.72,3.65,3,6.09,6,8a40.29,40.29,0,0,1,8.55,6.84c3.67,4,4.78,8.72,4.42,13.93a44.61,44.61,0,0,1-.64,5.16,10.79,10.79,0,0,1-1.05,3.08c-.75,1.43-1.86,2.49-3.68,2.29h-.45c-4.06,0-6-1.84-6.13-5.92,0-.3,0-.6,0-.9Z"/><path d="M116.76,71c-1.39-1.11-2.57-2.16-3.86-3Q110,66,107,64.28a1.45,1.45,0,0,1-.9-1.57A15.8,15.8,0,0,0,101,49.6c-5.31-4.89-11.48-5.66-18.17-3.82a38.74,38.74,0,0,0-5,1.91,1.41,1.41,0,0,1-1.62-.2c-1.38-1-2.82-1.89-4.28-2.76A1.51,1.51,0,0,1,71,43.32a17.47,17.47,0,0,0-.2-2.71,1.07,1.07,0,0,1,.78-1.37A45.5,45.5,0,0,1,92.78,35.9C103,37,111,41.69,115.42,51.27a28,28,0,0,1,2,15.53C117.26,68.13,117,69.46,116.76,71Z"/><path d="M109.58,39.55c4.53-.67,8.81-.79,12.93.93s6.08,5.27,7.19,9.33c.66,2.41,1,4.91,2.76,6.85,1.23,1.38,2.57,2.65,3.88,4,2.11,2.11,4.32,4.12,6.34,6.32,2.65,2.9,5.07,6,6.27,9.83a5.73,5.73,0,0,1-.63,5,10,10,0,0,1-6.57,4.43,1.35,1.35,0,0,1-1.1-.64c-1-2-1.84-4-2.67-6-.56-1.36-.95-2.78-1.46-4.16A16.36,16.36,0,0,0,131,68.15c-3.56-2.79-6.92-5.84-10.34-8.8a2,2,0,0,1-.64-1.13c-1-7.3-4.09-13.46-9.89-18.13C110,40,109.84,39.83,109.58,39.55Z"/><path d="M55,112.33A9.37,9.37,0,0,1,67,108.82a22.92,22.92,0,0,1,7.26,5.12c.87.89,1.11,2.61,1.24,4,.45,4.57-.37,9.09-.92,13.61a45.53,45.53,0,0,0-.25,10.5,39,39,0,0,1,.1,4.19A3.69,3.69,0,0,1,70.72,150c-3,.19-5.53-.52-7.36-3a8.65,8.65,0,0,1-1-1.6,1.74,1.74,0,0,1,0-1.27A21.13,21.13,0,0,0,63.86,133c-.31-3.57-.61-7.13-1.06-10.68a9.49,9.49,0,0,0-3.25-6.49C58.09,114.64,56.57,113.52,55,112.33Z"/><path d="M83.05,62.06l-9,3.72c-.24-.57-.49-1.23-.8-1.86-4-8.25-10.87-12.53-19.83-13.5a50.84,50.84,0,0,0-7.8.1,25,25,0,0,1-13.49-2.68c-2.77-1.5-3.23-4-1.08-6.33a6.43,6.43,0,0,1,7.22-2.07,114.4,114.4,0,0,0,11.52,3.31c3.61.75,7.35.81,11,1.34C71.19,45.6,78.7,51,82.68,60.93,82.83,61.31,82.93,61.7,83.05,62.06Z"/><path d="M18,124.34a1.69,1.69,0,0,0-.49-.13l-10-.07a4.54,4.54,0,0,1-4.23-2.29c-1-1.57-1.76-3.08-1.26-4.95a6.12,6.12,0,0,1,3.46-3.83,20.66,20.66,0,0,1,10.64-2A2.63,2.63,0,0,1,18,112.27c1.91,4.11,5.46,6.43,9.06,8.76a42.12,42.12,0,0,1,4.24,3.17c1.8,1.51,1.15,3.5.88,5.38-.08.6-.37,1.16-.44,1.75-.6,4.64-5.64,7.94-9,8.23-1.34.11-2.68.4-4,.41-3.41,0-5.87-4.46-4.15-7.42.4-.68.83-1.35,1.21-2a3.66,3.66,0,0,0-.06-4c-.61-1-.44-1.27.7-1.53.52-.13,1-.3,1.55-.45Z"/><path d="M102.31,35.48A33.06,33.06,0,0,0,89.5,33.09a1.1,1.1,0,0,1-1.25-.89c-.4-1.82-1.82-2.92-2.91-4.27a21.4,21.4,0,0,0-5.73-4.69,10.22,10.22,0,0,0-8.5-1c-1.76.49-3.48,1.12-5.27,1.7-2.18-3.05-4.92-5.56-9.24-6.11a10.76,10.76,0,0,1,.75-1.14,9.88,9.88,0,0,1,6.49-3.14c3.92-.47,7.88-.71,11.83-.81A21.71,21.71,0,0,1,89.36,17.4,38.07,38.07,0,0,1,99.63,28.14,18.75,18.75,0,0,1,102.31,35.48Z"/><path d="M62.68,56.22A18.5,18.5,0,0,1,56,59.92a73.76,73.76,0,0,1-8.88,2.19,23.24,23.24,0,0,0-13,6.8c-1.22,1.25-1.46,1.23-2.73,0-2-1.88-3.87-3.83-6-5.55a18.22,18.22,0,0,0-4.05-2.21,1.46,1.46,0,0,1-1-1.45c-.3-5,2.33-8.16,6.36-10.45a2.28,2.28,0,0,1,2-.09,27.21,27.21,0,0,0,8,3.5c-1.83,1.42-3.75,2.57-4.9,4.83a4.9,4.9,0,0,0,.84-.37,26.39,26.39,0,0,1,7.56-3.54,3.75,3.75,0,0,1,1-.23c4.14-.09,8.3-.35,12.43-.18A17.73,17.73,0,0,1,62.68,56.22Z"/><path d="M154.08,51.54a4,4,0,0,1-.58-.36q-4.89-4.63-9.76-9.27c-1.91-1.82-2.82-4.21-3.74-6.65a8.9,8.9,0,0,0,5.93-4.34,10.53,10.53,0,0,1-1.68.77c-1.6.41-3.22.77-4.84,1.08a1.15,1.15,0,0,1-.95-.35,22.94,22.94,0,0,0-6.57-5.4c-.19-.11-.37-.25-.7-.48a19.29,19.29,0,0,0,6.09-13.93,10.08,10.08,0,0,1,1.46.4,57.68,57.68,0,0,1,6,2.92,9.44,9.44,0,0,1,4.49,7.23c.49,4.14,2.43,7.6,4.81,10.88a2.79,2.79,0,0,1,.47,1A42.51,42.51,0,0,1,155,47.34,27.78,27.78,0,0,1,154.08,51.54Z"/><path d="M78.24,116.21c1.26.55,2.41,1.1,3.59,1.55,2.07.79,4.18,1.46,6.22,2.29,1.79.72,3.68,1.31,4.93,3a1.62,1.62,0,0,0,1,.6,2.59,2.59,0,0,1,2.16,1.62,24.2,24.2,0,0,1,2.65,14.1c-.16,2-2.4,3.78-4.17,4.13-3.67.71-6.35-1.61-6.57-5.36-.16-2.54-.6-5.07-.93-7.6a2.93,2.93,0,0,0-.29-.64,3.73,3.73,0,0,0-.24.65c-.33,2.69-.63,5.37-1,8-.2,1.46-3.21,4-4.76,4.08-3.08.18-4-.52-3.95-3.73s.46-6.16.7-9.24q.44-5.81.81-11.61A11.94,11.94,0,0,0,78.24,116.21Z"/><path d="M120.47,63.24c1.46,1.26,2.94,2.58,4.47,3.84s3.37,2.61,5,4a14.39,14.39,0,0,1,4.56,7.23,38.92,38.92,0,0,0,4.36,10c1.18,1.8,2.51,3.49,3.73,5.25a15.46,15.46,0,0,1,1.83,3,2.51,2.51,0,0,1-.18,2.08,8.42,8.42,0,0,1-12.41,1.66,2.46,2.46,0,0,1-.76-1.17,92.25,92.25,0,0,0-5.54-15.3,44.13,44.13,0,0,0-6.21-10.2,1.5,1.5,0,0,1-.28-1.07C119.5,69.45,120,66.4,120.47,63.24Z"/><path d="M37.32,111.22a12.59,12.59,0,0,1,6.14-.17,37,37,0,0,1,12.85,5.71,8.6,8.6,0,0,1,3.82,7.09c.16,3.38.7,6.74,1,10.12a16.64,16.64,0,0,1-.79,6.92,6.43,6.43,0,0,1-6.2,4.52,7.39,7.39,0,0,1-6-2.23,2.16,2.16,0,0,1-.55-2.33,33.63,33.63,0,0,0,.93-14.14c-1-6.08-4.56-10.57-9.4-14.17C38.53,112.15,38,111.74,37.32,111.22Z"/><path d="M68.09,42.64c-3.33-.57-6.6-1.12-9.85-1.74a1.41,1.41,0,0,1-.77-1,15.33,15.33,0,0,0-2.59-6.22c-.2-.29-.45-.54-.79-.94l1.27,7.7a3.35,3.35,0,0,1-.77.13A47.61,47.61,0,0,1,39.94,37c-.65-.29-.69-.54-.55-1.18,1-4.51,3.79-7.37,8-9.1a3.11,3.11,0,0,0,1.56-1.43c2-4.66,6.84-5.31,10.45-3.6A7.16,7.16,0,0,1,62.8,25c.55,1.14,1.58,2.08,2,3.24a69.9,69.9,0,0,1,2.26,7.61c.5,2.12.71,4.3,1,6.45A1.33,1.33,0,0,1,68.09,42.64Z"/><path d="M117.66,14.56a39.78,39.78,0,0,0-15.15-4.75,33.75,33.75,0,0,0-14.52,1,8.67,8.67,0,0,1-5.4,0,81.8,81.8,0,0,0-8.13-1.6,5.17,5.17,0,0,1,.74-1.58c2.07-2.21,4-4.67,7-5.67a9.69,9.69,0,0,1,3-.62c2.43,0,4.85.46,7.27.36A28.57,28.57,0,0,0,98.4.68c2.3-.58,4.52-1.25,6.8.14a9.52,9.52,0,0,0,6,1A16.16,16.16,0,0,1,120.64,4c.64.36.59.57.26,1.19A36,36,0,0,0,118.74,10,42.88,42.88,0,0,0,117.66,14.56Z"/><path d="M72.78,94.37a52.9,52.9,0,0,0-5.25-.81c-11.25-.61-19.76,4.17-26,13.38a2.25,2.25,0,0,1-1.9,1.08c-1.65.15-3.27.54-4.91.75a2.4,2.4,0,0,1-1.53-.27,6.92,6.92,0,0,1-3-3.84,1.53,1.53,0,0,1,.24-1.27A111.69,111.69,0,0,1,48.29,89.86,30.57,30.57,0,0,1,58,85.94a14.94,14.94,0,0,1,10.49,1.79C71.05,89.16,72,91.64,72.78,94.37Z"/><path d="M34.06,71.74c1.76-1.43,3.17-2.73,4.75-3.8a20.8,20.8,0,0,1,9-3.47c6.06-.84,11.66-2.79,16.37-6.87a2.66,2.66,0,0,1,.39-.22,19.42,19.42,0,0,1,7,9.45,1,1,0,0,1-.34.8Q69.18,69.31,67,70.9a1.36,1.36,0,0,1-.93.2,38.41,38.41,0,0,0-14.72,1,65.22,65.22,0,0,0-8.23,3.22c-1,.39-1.86,1-2.81,1.38a1.09,1.09,0,0,1-1-.12C37.69,75.06,36,73.52,34.06,71.74Z"/><path d="M27.46,86.56,22,91.76c-1.51-.86-3-1.78-4.51-2.54A29.34,29.34,0,0,0,3,86.54c-.88,0-1.46-.1-1.58-1.12A12.85,12.85,0,0,1,5.58,73.93a8.94,8.94,0,0,1,3.24-1.45,2.58,2.58,0,0,1,2.56.83c2.71,2.38,5.67,4.52,8.12,7.14,2.07,2.22,4.59,3.69,7,5.42C26.77,86.09,27.08,86.3,27.46,86.56Z"/><path d="M37.18,78.77c-1.31,1-2.58,2-3.84,3s-2.48,2-3.67,3a1.16,1.16,0,0,1-1.72.13,46.78,46.78,0,0,1-6.65-6.08c-2.46-2.44-4.94-4.86-7.49-7.21-1.67-1.52-2-2.48-1-4.51a8.07,8.07,0,0,1,.6-1.08c1.76-2.55,3.77-3.2,6.65-2a18.24,18.24,0,0,1,7,4.88C29,71,31.15,73,33.24,75,34.52,76.28,35.84,77.5,37.18,78.77Z"/><path d="M78.78,49.63c9-3.43,16.78-2.47,22.42,4.57a14.7,14.7,0,0,1,3,8.77c-1.26-.39-2.51-.82-3.77-1.16a30.09,30.09,0,0,0-13.48-.42c-.61.11-1.12.26-1.41-.6a28.92,28.92,0,0,0-6.42-10.7A4.13,4.13,0,0,1,78.78,49.63Z"/><path d="M115.35,23.67a22.26,22.26,0,0,0,6-10.9A25.83,25.83,0,0,1,123,8.31c1.2-2.55,3-2.72,4.91-2.33a7.69,7.69,0,0,1,4.68,2.41,6.37,6.37,0,0,1,1.57,3.93c.39,5-1.83,8.8-5.11,12.21a1.65,1.65,0,0,1-1.89.53,42,42,0,0,0-10.83-1.38C116,23.66,115.68,23.67,115.35,23.67Z"/><path d="M87.71,12.83c10.23-2,19.85-.61,29.34,3.18a20.39,20.39,0,0,1-6.67,7.59,4.13,4.13,0,0,1-1.82.49c-2.16.3-4.34.52-6.49.86a1.25,1.25,0,0,1-1.41-.58A44.7,44.7,0,0,0,89.2,13.72C88.78,13.44,88.32,13.19,87.71,12.83Z"/><path d="M70.47,36.89c-1.09-4-1.7-7.85-3.77-11.38a29.74,29.74,0,0,1,8.2-1.19c1.86.1,3.28,1.23,4.74,2.17s2.68,1.66,3.18,3.44c.17.62,1.31,1,2,1.46a9.76,9.76,0,0,1,1.86,1.52A55.66,55.66,0,0,0,70.47,36.89Z"/><path d="M16.34,109.09c-2.16,0-4.11,0-6.06,0a14.58,14.58,0,0,0-7.65,2.29c-1.12.63-1.24.48-1.8-.64C-.23,108.58,0,106.32.1,104.1a8.2,8.2,0,0,1,1-3.07,1.77,1.77,0,0,1,1.33-.85,43.63,43.63,0,0,1,5.94.33c3.21.47,5.22,2.63,6.66,5.35A33.26,33.26,0,0,1,16.34,109.09Z"/></g></g></svg>