<svg xmlns="http://www.w3.org/2000/svg" viewBox="0 0 72.09 150"><defs><style>.cls-1{fill:#fff;}</style></defs><title>1Asset 41</title><g id="Layer_2" data-name="Layer 2"><g id="Layer_1-2" data-name="Layer 1"><path class="cls-1" d="M55.08,98.8q0,21.3,0,42.61a8.44,8.44,0,0,1-16.68,2,11.2,11.2,0,0,1-.2-2.46q0-21.64,0-43.28c0-1.36-.13-2.6-1.85-2.79s-2.47.64-2.48,2.48q0,11,0,22c0,7.3,0,14.59,0,21.89A8.45,8.45,0,1,1,17,141.22q0-42,0-84.06c0-.83.06-1.67,0-2.49a1.91,1.91,0,0,0-2.18-1.79,1.89,1.89,0,0,0-2.07,1.73,15.38,15.38,0,0,0,0,2.15c0,10.61-.13,21.23.06,31.83C12.8,93.53,9.13,96.29,4,95a5.21,5.21,0,0,1-4-5.12c0-13.54-.1-27.08,0-40.62.08-6.9,6.33-13.31,13.26-13.61,6.39-.28,12.81-.13,19.22-.14q11.94,0,23.87,0C65.75,35.5,72,41.79,72,51.09c0,12.6-.09,25.2.06,37.8.07,6.26-6,7.48-9.72,5.65-2.12-1.05-3-3-3-5.32q0-15.68,0-31.34c0-.82,0-1.65,0-2.48,0-1.73-.71-2.53-2.13-2.54s-2.17.81-2.18,2.5q0,9.45,0,18.9Z"/><path class="cls-1" d="M36.34,0A16.54,16.54,0,1,1,19.66,16.27,16.45,16.45,0,0,1,36.34,0Z"/></g></g></svg>