<svg xmlns="http://www.w3.org/2000/svg" viewBox="0 0 131.28 150"><title>1Asset 4</title><g id="Layer_2" data-name="Layer 2"><g id="Layer_1-2" data-name="Layer 1"><path d="M40.17,0h51A58.57,58.57,0,0,1,96.9,1.53a7.63,7.63,0,0,1,4.64,4.58,32,32,0,0,1,1.54,8.29c.24,4.82.09,9.66,0,14.49a4.37,4.37,0,0,0,1.39,3.38C112.31,40,120,47.89,127.88,55.5a10.69,10.69,0,0,1,3.4,8.32q0,40.63,0,81.27A5.55,5.55,0,0,1,129,150H3.55C.81,148.82,0,146.71,0,143.8Q.11,101,0,58.14a5.11,5.11,0,0,1,1.64-4C10.07,45.82,18.42,37.4,26.84,29A4,4,0,0,0,28.16,26c0-3.76-.18-7.53.07-11.27a37.71,37.71,0,0,1,1.46-8.3,7.71,7.71,0,0,1,4.87-4.9A53.2,53.2,0,0,1,40.17,0ZM75.05,102.81q0-16.19,0-32.37a14.92,14.92,0,0,0-.35-3,2.06,2.06,0,0,0-2.36-1.82q-28.71.08-57.42,0c-3.75,0-5.52,1.8-5.52,5.59v63.85c0,3.83,1.72,5.59,5.5,5.59q28.05,0,56.1,0c2.2,0,3.21-.72,3.78-2.86a9.54,9.54,0,0,0,.27-2.45Q75.07,119.07,75.05,102.81Zm46.89-1.18h0q0-16.78,0-33.55a12.2,12.2,0,0,0-3.64-8.83Q113.21,54.09,108,49a26.84,26.84,0,0,0-2.24-1.88c-1-.79-1.77-.74-2.75.26-4.88,5-9.85,9.9-14.79,14.83a12.62,12.62,0,0,0-3.87,9.32q0,32,0,64a4.7,4.7,0,0,0,5.1,5.1q13.48,0,27,0c3.68,0,5.47-1.79,5.47-5.47Q121.95,118.4,121.94,101.63ZM99.12,38,99,37.62c-.65,0-1.3-.13-2-.13-20.05,0-40.11.06-60.16-.06a12,12,0,0,0-9.1,3.84C24.1,45,20.39,48.64,16.71,52.35c-.8.81-2,1.6-1.45,2.92s2,1,3.12,1c19.52,0,39,0,58.55.08a8.68,8.68,0,0,0,6.53-2.57c.35-.35.71-.67,1.05-1L98.18,39.09C98.51,38.76,98.81,38.39,99.12,38ZM65,28.14H89.74a3.41,3.41,0,0,0,3.71-2.64,6.77,6.77,0,0,0,.34-2c0-3.12,0-6.25,0-9.37a4.64,4.64,0,0,0-4.85-4.76q-23.28,0-46.55,0a4.66,4.66,0,0,0-4.87,4.9q0,4.9,0,9.81a12.72,12.72,0,0,0,.27,2,2.25,2.25,0,0,0,2.61,2.08C48.61,28.1,56.8,28.14,65,28.14Z"/><path d="M28.17,107.82c0-6,0-12.1,0-18.16,0-3.4,1.85-5.26,5.24-5.26q8.79,0,17.58,0c3.4,0,5.26,1.86,5.26,5.25q0,18.16,0,36.33c0,3.4-1.85,5.25-5.25,5.25q-8.79,0-17.58,0c-3.4,0-5.26-1.87-5.26-5.24Z"/></g></g></svg>