<svg xmlns="http://www.w3.org/2000/svg" viewBox="0 0 157.65 150"><title>1Asset 20</title><g id="Layer_2" data-name="Layer 2"><g id="Layer_1-2" data-name="Layer 1"><path d="M0,71.13H157.65c-.78,24.57-9.83,45.37-29.15,60.51C101.2,153,71.17,155.9,40.7,139.35,14.26,125,1.52,101.29,0,71.13Z"/><path d="M93.47,54.88H79.25c.28-2.87.73-5.67.8-8.49A17.76,17.76,0,0,0,74.57,33C69.28,27.76,65.51,21.68,64,14.3A33.46,33.46,0,0,1,64.31.08H78.44c-.15,1.33-.2,2.58-.43,3.81-1.39,7.61,1,13.87,6.39,19.33a33,33,0,0,1,9.89,26.32C94.18,51.29,93.76,53,93.47,54.88Z"/><path d="M95.73.09H110c-.31,2.5-.76,4.9-.86,7.32a19.94,19.94,0,0,0,6.32,15.29,34.67,34.67,0,0,1,9.7,17.16c1,4.62.71,9.25.1,13.87A1.75,1.75,0,0,1,124,54.88c-4.36.09-8.73,0-13.27,0,.28-2.23.53-4.32.81-6.41a18.14,18.14,0,0,0-4.32-14.25c-2.87-3.5-6.21-6.59-8.33-10.69A33.82,33.82,0,0,1,94.93,7C95,4.75,95.44,2.46,95.73.09Z"/><path d="M46.94,0c-.26,1.93-.47,3.66-.72,5.39-1,7,1.56,12.65,6.39,17.52a35.43,35.43,0,0,1,9.85,18.73c.84,4.41.24,8.75-.55,13.19H47.54c.26-1.7.45-3.36.77-5,1.1-5.59-.51-10.55-3.77-15-1.88-2.56-4.31-4.72-6.2-7.28a32.12,32.12,0,0,1-6-25C32.75,0,32.72,0,35.4,0Z"/></g></g></svg>