<svg xmlns="http://www.w3.org/2000/svg" viewBox="0 0 125.74 150"><title>1Asset 41</title><g id="Layer_2" data-name="Layer 2"><g id="Layer_1-2" data-name="Layer 1"><path d="M73.33,35.89c3.1-.7,6-1.56,9-2,23.6-3.49,44.73,15.87,43.35,39.75-.72,12.45-6.34,22.27-16.48,29.48a2,2,0,0,0-1,2.12q2.25,24.11-13.78,42.28A6.93,6.93,0,0,1,88.9,150q-34.66,0-69.35,0a6.76,6.76,0,0,1-5.26-2.3,54.4,54.4,0,0,1-7.51-63,53.63,53.63,0,0,1,16.5-18.2C29.51,62.16,33.8,56.51,34.84,49c.6-4.4.32-8.93.44-13.4a14.41,14.41,0,0,1,0-1.86c.31-2.12-.46-3.39-2.34-4.61a14.81,14.81,0,0,1-6.89-12.55c-.12-3.6-.07-7.21,0-10.81A5.44,5.44,0,0,1,31.68.05C43.43,0,55.18,0,66.92.07A15.83,15.83,0,0,1,81.57,11.38,15.67,15.67,0,0,1,75.47,29c-1.79,1.19-2.39,2.4-2.16,4.36A21.73,21.73,0,0,1,73.33,35.89ZM54.27,89.8c-11.92,0-23.85,0-35.78,0a2.53,2.53,0,0,0-2.68,1.68Q4.46,115.9,20.37,137.6a2.72,2.72,0,0,0,2.48,1.21q31.4,0,62.8,0a2.9,2.9,0,0,0,2.63-1.31q15.7-21.72,4.43-46a2.65,2.65,0,0,0-2.85-1.73C78,89.82,66.13,89.8,54.27,89.8ZM46.44,32.16c0,2.64.13,5.13,0,7.59-.29,4.7-.23,9.5-1.24,14-1.93,8.76-7,15.68-14.27,20.92-1.56,1.12-3.09,2.3-5,3.73H82.66c-2.24-1.65-4.06-2.92-5.82-4.28Q61.94,62.73,62.09,43.91c0-3.9,0-7.79,0-11.75ZM105.32,92c.32-.27.61-.49.87-.74A27,27,0,0,0,75.53,47.47c-1.58.77-2,1.59-1.57,3.29,1.73,6.79,5.73,11.83,11.41,15.76a51.64,51.64,0,0,1,16.51,18.39C103.1,87.19,104.15,89.57,105.32,92ZM37.23,11.23c0,1.68,0,3.16,0,4.64.08,3,1.82,4.78,4.78,4.79q12.21.07,24.42,0a4.51,4.51,0,0,0,4.73-4.48,4.69,4.69,0,0,0-4.57-4.92C56.9,11.18,47.21,11.23,37.23,11.23Z"/><path d="M28,107.51a5.5,5.5,0,0,1-5.64-5.45,5.57,5.57,0,0,1,5.6-5.72,5.65,5.65,0,0,1,5.57,5.6A5.51,5.51,0,0,1,28,107.51Z"/><path d="M75.55,112.34A5.47,5.47,0,0,1,70,106.85a5.55,5.55,0,0,1,5.43-5.69,5.61,5.61,0,0,1,5.71,5.62A5.52,5.52,0,0,1,75.55,112.34Z"/><path d="M46.4,116a5.58,5.58,0,0,1,5.61,5.5,5.58,5.58,0,1,1-11.15,0A5.52,5.52,0,0,1,46.4,116Z"/></g></g></svg>