<svg xmlns="http://www.w3.org/2000/svg" viewBox="0 0 118.76 150"><title>1Asset 43</title><g id="Layer_2" data-name="Layer 2"><g id="Layer_1-2" data-name="Layer 1"><path d="M15.82,25.44a47.15,47.15,0,0,1-5.56-1.61C6.88,22.4,5.09,20.11,5,17.27A92.86,92.86,0,0,1,5,8C5.22,3.33,9.92,0,16.34,0Q59.26,0,102.18,0c6.62,0,11.33,3.39,11.52,8.2.11,2.71,0,5.42,0,8.13,0,4.72-3.32,7.64-9.66,8.67-.36.06-.71.15-1.26.26a41.09,41.09,0,0,0,.08,5c0,.48.9,1.06,1.58,1.34,7.28,3,12.33,7.29,13.85,13.45a13.26,13.26,0,0,1,.28,3.14c0,27-.28,54,.16,81,.2,11.91-12,18.63-22.77,20.17a59.61,59.61,0,0,1-8.35.64q-28.35.08-56.7,0c-8.32,0-15.9-1.63-22.24-5.69C2.92,140.6,0,136,0,130.27.08,107,0,83.69,0,60.4c0-3.76.12-7.52,0-11.28-.31-8,4.79-13.61,14.07-17.41,1.33-.55,1.86-1.11,1.76-2.18C15.73,28.15,15.82,26.77,15.82,25.44ZM109.4,111.3v-44H9.31v44ZM64.66,6.77H54.08v11.6H64.66ZM24.72,6.66c-3,0-5.68,0-8.39,0-1.44,0-2.26.62-2.27,1.68,0,2.81-.12,5.62.09,8.43,0,.58,1.21,1.55,2,1.6,2.83.2,5.69.08,8.62.08ZM94,18.45c3,0,5.84.12,8.67-.08a2.59,2.59,0,0,0,1.89-1.65,59.92,59.92,0,0,0,0-8.26,2.39,2.39,0,0,0-1.62-1.66c-3-.17-6-.07-9-.07Z"/><path d="M54.23,105c-9.38.32-15.19-6.39-12.45-13.22,1.45-3.64,4.44-6.13,8.71-7.65a3.36,3.36,0,0,0,1.74-1.45c2.34-4.68,8-7.86,13.84-7.69,9,.25,14.18,7.59,10.29,14.53a14.33,14.33,0,0,1-8.19,6.4,3.21,3.21,0,0,0-1.63,1.36A14.47,14.47,0,0,1,54.23,105Z"/></g></g></svg>