<svg xmlns="http://www.w3.org/2000/svg" viewBox="0 0 150.02 150"><title>1Asset 27</title><g id="Layer_2" data-name="Layer 2"><g id="Layer_1-2" data-name="Layer 1"><path d="M150,74c0,10.79-1.06,21.44-4.28,31.8-6.8,21.82-21.39,35.41-43.41,41.15-11.46,3-23.13,3.46-34.88,2.77a92.58,92.58,0,0,1-30.67-6.65c-15.32-6.43-26.93-16.74-33-32.49-8.26-21.36-3-46,16.62-61.69,4.78-3.84,9.67-7.54,14.35-11.48,4.85-4.08,8.38-9.08,9.57-15.46.39-2.08.52-4.21,1-6.25C47.06,9.08,51.65,5,57.83,2.84A44.55,44.55,0,0,1,69.19.27C88.27-1.15,106,3,121.49,14.61,140.34,28.75,149.82,47.79,150,71.4,150,72.27,150,73.13,150,74Zm-10.61-.18c-.2-15.7-5.66-31.35-16.36-45.12C110.82,13,94.78,5.23,74.75,6c-13.83.51-23.21,8.32-25,22a26.68,26.68,0,0,1-9.39,17.21c-.94.82-1.87,1.66-2.79,2.5C33,51.78,28.15,55.61,24,60.1,11.23,73.94,7.37,90,13.57,108c4.63,13.36,14.51,22,27.44,26.91,18.73,7.15,38,7.55,57.18,2.3,16.07-4.4,27.7-14.41,34.64-29.65C137.45,97.39,139.22,86.64,139.4,73.82Z"/><path d="M75.25,136.24c-13.72-.18-25-1.58-35.59-6.58-12.63-6-21.08-15.45-23.7-29.44-2.52-13.49,1.11-25.45,10.13-35.59,4.23-4.76,9.26-8.82,13.91-13.2C42.6,49,45.27,46.57,47.73,44c3.93-4.11,5.64-9.14,6.44-14.76,1.8-12.6,10.22-19.37,23-18.92,5.14.18,10.28.44,15.28,1.94C103.93,15.68,113,22.55,120,32q18.21,24.33,14,54.56c-1.35,9.63-4.23,18.7-9.74,26.8-7.47,11-18,17.42-30.77,20.54A52.7,52.7,0,0,1,87,135.18C82.38,135.69,77.73,136,75.25,136.24ZM29.73,92.1A21.17,21.17,0,1,0,51,71,21.21,21.21,0,0,0,29.73,92.1Z"/><path d="M34.21,92.27a16.67,16.67,0,1,1,16.6,16.57A16.67,16.67,0,0,1,34.21,92.27Z"/></g></g></svg>