<svg xmlns="http://www.w3.org/2000/svg" viewBox="0 0 180.08 150"><title>1Asset 38</title><g id="Layer_2" data-name="Layer 2"><g id="Layer_1-2" data-name="Layer 1"><path d="M33.53,0h4l3,.55A44.31,44.31,0,0,1,62.42,11.19c6.93,6.18,13.52,12.75,19.9,19.49,2.73,2.88,5.25,4.65,9.21,3.15a4.29,4.29,0,0,1,.73-.08c11.88-1.47,23.75-2.81,35.34-6.12,8.58-2.44,17.34-4.26,26.38-3.8,8.77.44,15.66,4.18,20,11.9,6.26,11.13,7.94,22.87,3.93,35.16C174,83,166.25,92.25,156.28,99.77a6.21,6.21,0,0,0-2.74,5.11,38.8,38.8,0,0,1-7.14,20.3,52.67,52.67,0,0,1-23.17,18.27c-19.66,8.36-39.72,8.37-59.85,2C48.64,140.8,36,132.85,26.64,120.28c-6.44-8.66-10-18.37-9-29.27a10.73,10.73,0,0,0-2.39-8.37C6.28,71.14.56,58.28,0,43.49-.34,33,2.27,23.38,8.91,15.08c5.29-6.61,11.51-12,20-14.15C30.41.54,32,.31,33.53,0ZM92.2,135c2.23-.17,5.35-.28,8.44-.66,9.35-1.17,18.1-4,25.79-9.67,8.7-6.39,12.69-15,12.5-25.77-.07-3.94-1.75-6.89-5.25-8.56a34.66,34.66,0,0,0-7.87-2.9c-7.52-1.58-15.18-2.58-22.67-4.3-9.63-2.2-19.15-4.88-28.72-7.35-7.94-2.05-15.88-4.12-24.19-3.45-6.12.49-11.62,2.3-14.6,8.24A28,28,0,0,0,33,99.6c1.93,8.64,7.12,15.2,13.88,20.55C59.91,130.44,75,134.54,92.2,135Zm58-49.51a47.44,47.44,0,0,0,11.5-14.35c4.46-8.73,4.22-17.5.34-26.33a9.33,9.33,0,0,0-8.5-6c-5.19-.36-10.23.62-15.24,1.74-7,1.56-13.83,3.65-20.85,4.87-9.68,1.68-19.48,2.67-29.2,4.15-7,1.07-13.94,2.63-20.08,6.48-1,.6-1.85,1.29-2.78,1.95,5.62,1.46,11.06,2.83,16.47,4.28,9,2.4,17.76,5.32,27,6.63,6.82,1,13.62,2.22,20.32,3.83C137.37,74.71,145,77.86,150.19,85.46ZM24.34,70c1-1.2,1.84-2.2,2.71-3.14,5.09-5.4,11.59-7.93,18.74-9.15a2.62,2.62,0,0,0,1.72-1c4.11-8.12,11-13.08,19-16.69.92-.42,1.85-.8,2.9-1.25-6.08-6.54-11.93-13.08-19.24-18a46.83,46.83,0,0,0-9.45-4.71,13.27,13.27,0,0,0-12.62,1.39c-6,4.07-10.48,9.4-12.2,16.58C12.76,47.27,17.4,58.74,24.34,70Z"/></g></g></svg>