<svg xmlns="http://www.w3.org/2000/svg" viewBox="0 0 91.15 127.9"><title>1Asset 37</title><g id="Layer_2" data-name="Layer 2"><g id="Layer_1-2" data-name="Layer 1"><path d="M91,111.84H.12V43.46H91ZM45.55,50.2c-17.69,0-32.12,12.37-32.13,27.46S27.94,105.07,45.62,105,77.73,92.7,77.73,77.59,63.22,50.18,45.55,50.2Z"/><path d="M.06,38.68c0-4.06-.16-8.06.05-12C.3,23.1,3.94,20.51,8.32,20.5q18.66,0,37.32,0H82.29c5.56,0,8.84,2.79,8.83,7.53,0,3.42,0,6.85,0,10.27a2.07,2.07,0,0,1-.09.38Z"/><path d="M91.1,116.56c0,1.76.11,3.43,0,5.08-.28,3.6-3.82,6.24-8.28,6.25q-18.08,0-36.14,0-18.91,0-37.82,0c-5.55,0-8.8-2.79-8.81-7.55v-3.78Z"/><path d="M21.34,15.87H13.52V0H77.61V15.84H69.69c0-2.93,0-5.82,0-8.71a2.34,2.34,0,0,0-1.64-2.42A2.62,2.62,0,0,0,64.34,7c0,1.47,0,2.95,0,4.42v4.39H59v-7c0-.67,0-1.33,0-2a2.49,2.49,0,0,0-2.67-2.26,2.44,2.44,0,0,0-2.65,2.28c-.06,2.66,0,5.33,0,8v1.06H48.25c0-2.94,0-5.83,0-8.72A2.33,2.33,0,0,0,46.61,4.7,2.63,2.63,0,0,0,42.91,7c0,1.47,0,3,0,4.42v4.39H37.54V8.33c0-.53,0-1,0-1.57a2.53,2.53,0,0,0-2.7-2.25A2.44,2.44,0,0,0,32.2,6.8c-.05,2.57,0,5.14,0,7.71v1.34H26.82V12.53c0-1.71,0-3.43,0-5.14s-1-2.85-2.63-2.88a2.53,2.53,0,0,0-2.72,2.81c0,2.71,0,5.42,0,8.13A2.9,2.9,0,0,1,21.34,15.87Z"/><path d="M45.58,100.47c-14.67,0-26.79-10.29-26.8-22.78s12-22.9,26.8-22.92S72.36,65,72.37,77.55,60.37,100.46,45.58,100.47ZM42.89,77.19c1.08,1.37,2,2.56,3,3.72a3,3,0,0,0,4.81,0c3.5-4.4,7-8.84,10.39-13.28a2.06,2.06,0,0,0-.67-3.36,2.88,2.88,0,0,0-3.75.83c-1.86,2.31-3.65,4.66-5.48,7l-2.88,3.65c-1.09-1.38-2-2.61-3-3.79a2.92,2.92,0,0,0-4.61-.09C37,76.4,33.48,81,30,85.53a2,2,0,0,0,.58,3,3,3,0,0,0,4.11-.88C37.36,84.28,40,80.84,42.89,77.19Z"/></g></g></svg>