<svg xmlns="http://www.w3.org/2000/svg" viewBox="0 0 133.47 150"><title>1Asset 5</title><g id="Layer_2" data-name="Layer 2"><g id="Layer_1-2" data-name="Layer 1"><path d="M11.3,55.46c0-2.8-.31-5.39,0-7.87C12.54,39.41,18.76,33.83,27,33.22c.23,0,.45,0,.77-.09a18.83,18.83,0,0,1,5.89-10.94c1.76-1.54,3.94-2.59,5.87-4a6.16,6.16,0,0,0,2.09-2C46.35,6.77,53.85,1.25,64.37.15A27.45,27.45,0,0,1,92.15,16.08a4.37,4.37,0,0,0,2.33,2.32,19.16,19.16,0,0,1,10.85,13.2c.13.5.26,1,.4,1.55a17,17,0,0,1,13.51,7.06c3.36,4.52,3.29,9.73,3,15.25h5.07c3.9,0,6.14,2.24,6.11,6.17-.06,7.28.36,14.58-1,21.82a65.85,65.85,0,0,1-24.95,41.37,4.22,4.22,0,0,0-1.91,3.86c.11,5.09,0,10.19,0,15.29,0,3.78-2.27,6-6.08,6H33.92c-3.88,0-6.09-2.24-6.1-6.17,0-5.33,0-10.66,0-16a2.68,2.68,0,0,0-1.2-2.45A66.13,66.13,0,0,1,1.24,84.85C-.06,78.5,0,72.08,0,65.65c0-1.45,0-2.9,0-4.34a5.56,5.56,0,0,1,5.92-5.85Zm111,11.24H11c.22,4.35.12,8.6.72,12.76,2.37,16.6,10.58,29.65,24.47,39.08A5.9,5.9,0,0,1,39,123.78c0,4.46,0,8.92,0,13.38v1.62h55.6c0-5,0-9.91,0-14.81a6.21,6.21,0,0,1,3-5.53C115.48,105.93,123.21,88.47,122.32,66.7Zm-11.1-11.27c0-1.76,0-3.37,0-5a5.57,5.57,0,0,0-2.85-5.38,5.44,5.44,0,0,0-6,.38,5.52,5.52,0,0,1-6.64-.13A5.63,5.63,0,0,1,94,38.76,8.23,8.23,0,0,0,87.64,27.7a5.86,5.86,0,0,1-4.85-4.38c-2.3-7.48-8.57-12.25-16.05-12.27S53,15.84,50.69,23.31a5.89,5.89,0,0,1-4.84,4.39,8.3,8.3,0,0,0-6.39,11.07A6.79,6.79,0,0,1,39.79,42c-.77,4.1-5,5.7-8.79,3.39-3.45-2.15-7.76-.66-8.49,3.19-.42,2.21-.08,4.55-.08,6.87Z"/></g></g></svg>