<svg xmlns="http://www.w3.org/2000/svg" viewBox="0 0 186.34 150"><title>1Asset 31</title><g id="Layer_2" data-name="Layer 2"><g id="Layer_1-2" data-name="Layer 1"><path d="M154.24,49.21c6-6,11.4-11.54,16.95-16.92A13.14,13.14,0,0,1,176,29.21a7.9,7.9,0,0,1,9.18,3.64,8.35,8.35,0,0,1-1.41,10.35C178.1,49,172.35,54.63,166.65,60.33c-1.83,1.83-3.63,3.68-5.51,5.45-4.77,4.5-8.82,4.48-13.44-.12-4.26-4.24-8.45-8.56-12.33-12.5L99.18,89.34c6.21,6.13,13,12.67,19.57,19.44a21.85,21.85,0,0,1,4,6.45c1.43,3.28.57,6.38-1.92,8.89-7.72,7.79-15.45,15.57-23.27,23.26a8.29,8.29,0,0,1-11.87.23c-3.34-3.3-3.29-8.5.27-12.12,5.88-6,11.84-11.85,18-18C94.29,107.74,84.81,98.18,74.69,88a17.75,17.75,0,0,1-1.9,2.76c-8.25,8.33-16.43,16.72-24.92,24.81a11.74,11.74,0,0,1-7,3.07c-10.53.33-21.07.18-31.61.13-5.65,0-9.31-3.51-9.21-8.56.1-4.9,3.73-8.1,9.27-8.11,8.71,0,17.42.06,26.13-.08a6.61,6.61,0,0,0,4.17-1.63Q57.5,82.72,75.16,64.8a5.49,5.49,0,0,0,1.31-3.51c.08-11.51-.1-23,.07-34.52a8,8,0,0,1,8.19-7.91c11.94-.1,23.88-.18,35.81.11A10.86,10.86,0,0,1,127,22c8.06,7.59,15.89,15.43,23.77,23.22C151.9,46.32,152.87,47.62,154.24,49.21Zm-61-4,9.81-9.45H93.24Z"/><path d="M151.69,0A16.49,16.49,0,0,1,168,16.77,16.63,16.63,0,1,1,151.69,0Z"/></g></g></svg>