<svg xmlns="http://www.w3.org/2000/svg" viewBox="0 0 143.73 150"><title>1Asset 29</title><g id="Layer_2" data-name="Layer 2"><g id="Layer_1-2" data-name="Layer 1"><path d="M61,150c-2.45-.82-4.82-1.75-6.64-3.73a11.78,11.78,0,0,1,4.94-19.38c7.11-2.41,14.29-4.61,21.43-6.9q18.66-6,37.33-11.94a33.28,33.28,0,0,1,3.85-.8c.82-.16,1.22.2,1.48,1,.74,2.27,1.65,4.49,2.32,6.77,1.19,4,3.14,7.37,7.53,8.73a11.68,11.68,0,0,1-7.33,6.65Q113,134.58,100,138.71L67.3,149.2l-2.48.8Z"/><path d="M74.2,0a55.78,55.78,0,0,1,7.32,2.35A21.67,21.67,0,1,1,68.69.26,4.88,4.88,0,0,0,69.51,0Z"/><path d="M78.89,150l-3.32-1.1,15.44-5a11.92,11.92,0,0,1-7.65,5.75c-.33.08-.64.21-1,.31Z"/><path d="M98,64.08v1.7c0,14.89,0,29.78,0,44.67a1.92,1.92,0,0,1-1.64,2.2c-7.77,2.42-15.5,5-23.27,7.41a4.72,4.72,0,0,1-2.66,0c-7.72-2.41-15.4-4.94-23.12-7.36a2,2,0,0,1-1.72-2.29c.06-14.84,0-29.68,0-44.52V64.18a11.13,11.13,0,0,0-1,.65c-5.08,4.12-10.16,8.23-15.2,12.4a4.49,4.49,0,0,0-1.24,1.89Q21.71,97.53,15.28,116c-1.52,4.34-5.17,6.65-9.08,5.79-4.83-1.06-7.36-5.66-5.68-10.49,2.9-8.38,5.85-16.74,8.78-25.11,1.71-4.88,3.44-9.74,5.11-14.63a10.3,10.3,0,0,1,3.39-4.83Q31.68,55.43,45.49,44.1a9.25,9.25,0,0,1,7.23-2.5h.14a12.1,12.1,0,0,1,7.28,1.79c8.53,4.57,17,4.07,25.3-1a5.43,5.43,0,0,1,2.68-.79c7.29-.05,6.25-.66,12.51,4.46,8.47,6.92,17,13.77,25.39,20.77a10.49,10.49,0,0,1,3.08,4.31c4.8,13.34,9.45,26.74,14.11,40.13a7.7,7.7,0,0,1-3.06,9.38,7.49,7.49,0,0,1-9.31-.86,10.91,10.91,0,0,1-2.39-3.93c-4.37-12.25-8.63-24.55-13-36.82a4.19,4.19,0,0,0-1.15-1.78C109.18,73,104,68.82,98.8,64.6,98.65,64.48,98.48,64.39,98,64.08Z"/><path d="M68.06,121.7c-2.94,1-5.58,1.9-8.28,2.64C52.31,126.4,48.25,133,49,139.55a4.65,4.65,0,0,1,0,.85l-11.88-3.82c-6.22-2-12.43-4-18.65-6a12.16,12.16,0,0,1-7.9-6.78c.35-.18.62-.35.92-.47a9.83,9.83,0,0,0,5.68-5.95c1.06-3,2.16-6,3.13-9,.34-1.08.9-1.4,1.89-1.21a30.17,30.17,0,0,1,3.42.75Q46,114.52,66.45,121.09C66.91,121.24,67.35,121.43,68.06,121.7Z"/></g></g></svg>