<svg xmlns="http://www.w3.org/2000/svg" viewBox="0 0 167.5 150"><title>1Asset 24</title><g id="Layer_2" data-name="Layer 2"><g id="Layer_1-2" data-name="Layer 1"><path d="M.07,49.52c.36-7.4.62-14.8,2.83-22C4,24.11,5.07,20.63,6.45,17.29,10.19,8.24,17.33,3.22,26.59,1c9.87-2.34,19.35-.58,28.1,4.08C62.1,9.05,69.17,13.66,76.17,18.3s13.83,10,22,12.46a193.7,193.7,0,0,0,19.26,4.36c16.65,3.25,30.74,10.78,41,24.53,11,14.77,11.6,30.6,3.5,46.73-3.92,7.79-8.65,15.2-13.29,22.6-7.43,11.84-18.54,18.1-32.13,20.27a63.64,63.64,0,0,1-33.82-4.09,150.41,150.41,0,0,1-48.17-30.73c-6.79-6.4-12.11-14.06-16.82-22.07-5-8.53-9.65-17.27-14.6-25.84-2.71-4.69-3.39-9.7-3.1-15C.1,50.88.07,50.2.07,49.52Zm119.87,71c3.22-.32,6.47-.48,9.66-1,29.14-4.66,36.34-37.37,22.12-55C142.17,52.72,129.7,45.93,115,43c-7.69-1.52-15.45-2.76-22.79-5.68-7.84-3.13-14.67-8-21.48-12.82-6.11-4.37-12.2-8.75-19-12C45,9.33,38.16,7.66,30.71,8.81c-10.56,1.63-17.14,9.09-17.3,19.77-.1,6.47,2.11,12.31,5,17.87A200.58,200.58,0,0,0,42.07,81.68a89.76,89.76,0,0,0,26.06,21.49,193.74,193.74,0,0,0,29.58,13.11A70,70,0,0,0,119.94,120.51Z"/><path d="M33.42,28.71a53.35,53.35,0,0,1,5.18,1.56C54,36.63,67.86,45.64,81.15,55.58c6.52,4.87,12.91,9.91,19.39,14.83,3.62,2.74,7.58,4.75,12.27,4.26a49.7,49.7,0,0,0,7.51-1.51c4.22-1.13,8.35-2.61,12.61-3.59a25.47,25.47,0,0,1,6.77-.24c1.94.08,2.68,1,2.81,3a9,9,0,0,1-2,6.19A16.35,16.35,0,0,1,133,83.66c-2.13.8-4.27,1.55-6.41,2.32-7.59,2.73-11.09,8.37-11.3,16.18a69,69,0,0,0,.55,9.19c.39,3.6-.71,4.77-4.3,4a16.9,16.9,0,0,1-10.89-7.92,51.81,51.81,0,0,1-5.09-9.62C91.93,88,85.64,80,78.3,72.73A133.29,133.29,0,0,0,44.39,48.29a99.06,99.06,0,0,1-9.71-5.66A14.83,14.83,0,0,1,29,35.34C27.55,31.59,29.36,28.94,33.42,28.71Z"/></g></g></svg>