<svg xmlns="http://www.w3.org/2000/svg" viewBox="0 0 228.99 150"><title>1Asset 10</title><g id="Layer_2" data-name="Layer 2"><g id="Layer_1-2" data-name="Layer 1"><path d="M.27,61.05c0-7.29-.57-14.63.12-21.86,1.54-16,10.92-26.54,25.06-33.25C33.78,2,42.71.84,51.8.34,66.17-.45,80.42-.07,94.44,3.6a76.21,76.21,0,0,1,34.09,19.61q4.83,4.66,9.87,9.12c4.27,3.75,9.29,4.9,14.94,4.47,15.17-1.15,30.4-1.89,45.47.85A68.5,68.5,0,0,1,216,43.12c8.54,4.09,12.83,11.45,12.88,21,.05,11.34.26,22.68-.09,34a28.51,28.51,0,0,1-2.8,11.36c-6.19,12.66-16.15,21.36-29.22,26.73-14.75,6.05-30.14,9.37-45.84,11.46a265.71,265.71,0,0,1-55.24,1.51c-18.55-1.41-36.76-4.5-54-12C19.51,127.64,6.91,110.17,1,87.34A44.51,44.51,0,0,1,.08,77.4C-.07,72,0,66.5,0,61.05Zm16.8,23.38a5.44,5.44,0,0,0-.16.8A2.63,2.63,0,0,0,17,86c4.47,13.85,11.6,25.86,24.56,33.33,14.36,8.28,30.38,11.17,46.57,13.06a247.09,247.09,0,0,0,55.51.06c15.23-1.65,30.18-4.48,44.59-9.94,9.42-3.57,17.16-9,22.34-17.82a18.22,18.22,0,0,0,1.83-3.77c1-3.1.22-5.46-1.9-7-4.46,2.31-8.7,4.82-13.18,6.79-14.67,6.46-30.2,9.7-46,11.77C124.12,116.07,97,116,70,110.75,50.12,106.87,31.15,100.83,17.07,84.43ZM56.9,91.3c6.43,1.49,12.39,2.84,18.33,4.26,1.66.4,2.33-.55,3.08-1.74Q96.7,64.65,115.13,35.5c.37-.58.67-1.2,1.3-2.33l-15.86-11ZM42.23,84.6,84.75,17.27c-7.23-.49-13.6-1-20-1.29a3.34,3.34,0,0,0-2.5,1.32Q45.14,43.52,28.21,69.87a3,3,0,0,0,.14,2.68A38.67,38.67,0,0,0,42.23,84.6ZM94.36,98.33c7.83.19,14.85.32,21.86.56A3.81,3.81,0,0,0,120,96.8c8.7-13.92,17.5-27.78,26.26-41.67.42-.65.78-1.33,1.35-2.34-7.47-.51-13.66-3.58-19.42-8Zm98-46c-8.4-.13-16.27-.29-24.15-.27-.75,0-1.71,1.09-2.22,1.89q-13.22,20.77-26.32,41.63c-.38.61-.67,1.28-1.1,2.11a8.44,8.44,0,0,0,1.43.08c8.25-1.17,16.51-2.29,24.73-3.63a5.11,5.11,0,0,0,2.85-2.34c7.8-12.2,15.51-24.46,23.24-36.71C191.25,54.4,191.6,53.71,192.38,52.3ZM18.62,55.14,43,17.45C23.4,20.37,10.35,35.21,18.62,55.14ZM189.89,86.49c9.88-3.5,17.33-10,21.62-18.43a11.81,11.81,0,0,0,1.06-3c.76-3.74-.63-6.25-4.3-7.69Z"/></g></g></svg>