<svg xmlns="http://www.w3.org/2000/svg" viewBox="0 0 156.32 150"><title>1Asset 25</title><g id="Layer_2" data-name="Layer 2"><g id="Layer_1-2" data-name="Layer 1"><path d="M0,96.46c1.49-28,16.71-53.15,41.15-73.21C59.45,8.24,80.33-.44,104.36,0a58,58,0,0,1,29.15,8.25C159.94,24.08,164,56,142.46,78a71.3,71.3,0,0,1-33.05,19.44C88,103.07,70.14,114.26,54.9,130.1a201.14,201.14,0,0,1-15.52,14.54c-9.1,7.64-15.61,7.09-23.91-1.51C5.05,132.34-.23,118,0,96.46ZM26.33,75.73c-.17,15.37,2.65,25.19,9.52,33.68,7.44,9.19,15.3,10.43,25.11,3.67a116.63,116.63,0,0,0,11.22-9,75.24,75.24,0,0,1,34.61-17.8,64,64,0,0,0,19-7.67c13.91-8.39,21.85-20.66,19.69-37.5-1.92-15-14.82-27.44-31.24-31.32C73.89.26,27,37.86,26.33,75.73Z"/><path d="M34.28,84.81C34.42,54,57.62,26.3,86.5,18.52c10.32-2.78,20.62-3.31,30.67.73,10.92,4.38,18.73,11.8,20.21,24.06,1.42,11.83-4.17,20.8-13.64,26.89a60.08,60.08,0,0,1-19.29,8.33A81,81,0,0,0,68.1,96.89C64,100.43,59.75,103.8,55.4,107s-8.52,2.59-12.14-1.5C37,98.48,34.34,90.16,34.28,84.81ZM106,63.34a17.83,17.83,0,0,0,.53-35.66C97,27.4,88.46,35.58,88.29,45.25A18.09,18.09,0,0,0,106,63.34Z"/><path d="M115.72,45.61A9.57,9.57,0,1,1,106.38,36,9.59,9.59,0,0,1,115.72,45.61Z"/></g></g></svg>