<svg xmlns="http://www.w3.org/2000/svg" viewBox="0 0 152.73 150"><title>1Asset 6</title><g id="Layer_2" data-name="Layer 2"><g id="Layer_1-2" data-name="Layer 1"><path d="M11.33,74.22c0,8.37,0,16.73,0,25.1a10.23,10.23,0,0,0,6.1,9.9Q44.21,122.74,71,136.28a11.51,11.51,0,0,0,10.72,0q26.82-13.23,53.62-26.52a10.23,10.23,0,0,0,6.11-9.9c0-11.37,0-22.74,0-34.11,0-4.33,3.1-6.76,7.26-5.79,2.55.6,4,2.64,4,5.68,0,8.84,0,17.68,0,26.51a95.72,95.72,0,0,1-.37,12,19.27,19.27,0,0,1-10.94,15.3c-18.73,9.5-37.43,19-56.24,28.4a19.22,19.22,0,0,1-17.59,0c-18.18-9-36.25-18.27-54.35-27.44C4.46,116,0,109,0,99.07c.09-16.5,0-33,0-49.5,0-9.13,4-15.84,12.29-20Q38.82,16.31,65.24,2.85a23.16,23.16,0,0,1,22.18,0c17.57,8.91,35.19,17.74,52.74,26.7,7.67,3.91,12.05,10.19,12.53,18.9.21,3.83-1.9,6.17-5.34,6.29-3.64.13-5.77-2-5.95-5.9a10,10,0,0,0-5.93-8.93L88.69,16.22c-2.15-1.08-4.32-2.14-6.46-3.26a12.15,12.15,0,0,0-11.67,0q-26.23,13-52.52,26c-4.56,2.23-6.81,5.64-6.74,10.77C11.42,57.84,11.33,66,11.33,74.22Z"/><path d="M30.73,56.48c0-5,4.1-7.38,8.22-5.51,6.69,3.05,13.34,6.18,20,9.27,5.34,2.47,10.65,5,16,7.36a3.71,3.71,0,0,0,2.74,0c11.92-5.61,23.79-11.32,35.68-17,3.35-1.6,6.41-.82,8,2,1.82,3.23.79,6.45-2.63,8.07q-13.65,6.44-27.31,12.82c-2.66,1.25-5.29,2.59-8,3.73A2.1,2.1,0,0,0,82,79.58q.59,20.06,1.08,40.1c.08,3.2-1.54,5.48-4.23,6.12-3.65.86-7-2-7.06-6.1q-.22-15.56-.4-31.1c0-2.95-.13-5.89-.06-8.84a2.41,2.41,0,0,0-1.69-2.63c-11.81-5.3-23.56-10.7-35.35-16C32,60,30.75,58.34,30.73,56.48Z"/></g></g></svg>