<svg xmlns="http://www.w3.org/2000/svg" viewBox="0 0 150.24 150"><title>1Asset 3</title><g id="Layer_2" data-name="Layer 2"><g id="Layer_1-2" data-name="Layer 1"><path d="M150.15,75c0,13.54-.18,27.09.07,40.63.13,6.94-2.64,12.19-7.65,16.57-6.06,5.28-13.22,8.53-20.75,11-18.35,6-37.23,7.53-56.4,6.54a138.88,138.88,0,0,1-36.78-6.46c-7.45-2.47-14.57-5.62-20.63-10.77C2.75,128,0,122.61,0,115.41q.3-40.51,0-81c0-6.94,2.64-12.2,7.66-16.57C13.55,12.69,20.48,9.48,27.79,7,46.32.86,65.41-.71,84.81.27a138.83,138.83,0,0,1,36.78,6.47c7.31,2.42,14.29,5.51,20.29,10.48,5.51,4.57,8.52,10.12,8.36,17.59C149.93,48.2,150.15,61.6,150.15,75ZM7.23,46.36v2.69c0,22.11.1,44.21-.08,66.31A13.68,13.68,0,0,0,12.52,127a30.82,30.82,0,0,0,7,4.67c6.36,2.63,12.76,5.41,19.4,7.08,18.07,4.55,36.48,5.13,55,3.11,11-1.21,21.88-3.42,32.14-7.87,4.87-2.1,9.5-4.61,13.27-8.46a12.48,12.48,0,0,0,3.73-9.21C143,93.83,143,71.35,143,48.88v-2.5a4.26,4.26,0,0,0-.86.38c-7.85,6.52-17.14,10-26.82,12.6a157.35,157.35,0,0,1-51.78,4.48C43.56,62.4,24.17,58.93,7.23,46.36ZM73.83,7.1c-12.77.26-23.85,1.38-34.74,4-9,2.2-17.75,5.09-25.26,10.76-8.79,6.65-8.89,14,.09,20.39a63.88,63.88,0,0,0,13.52,7.17c12.23,4.82,25.1,6.63,38.16,7.36,16.6.93,33-.28,49.1-4.65,8.28-2.25,16.33-5.2,23-10.9,7.14-6.11,7.09-12.16,0-18.33a46.77,46.77,0,0,0-14.75-8.19C106.57,8.68,89.54,7.06,73.83,7.1Z"/><path d="M32.24,96.36c0-4.46,0-8.93,0-13.39,0-1.68.35-3.09,1.93-4s3-.29,4.36.62c5.68,3.81,11.41,7.56,17,11.43a2.63,2.63,0,0,0,3.33,0c6.24-3.58,12.52-7.12,18.92-10.4A19.07,19.07,0,0,1,90.39,79c6.62,1.25,13.09,3,18.87,6.45a28.06,28.06,0,0,1,6.89,5.86,7.67,7.67,0,0,1,0,10.27,25.07,25.07,0,0,1-6.3,5.54,48.75,48.75,0,0,1-22.33,7,20.65,20.65,0,0,1-9.66-2c-6.36-3-12.49-6.54-18.57-10.1-1.7-1-2.71-1-4.28.11-5.43,3.78-11,7.37-16.48,11.06-1.37.91-2.72,1.55-4.35.69s-2-2.39-2-4.14C32.27,105.29,32.24,100.82,32.24,96.36Zm31.65-.56.13,1c4.74,2.6,9.5,5.17,14.22,7.81a18.22,18.22,0,0,0,14.4,1.6c5.6-1.55,11.14-3.25,15.9-6.72,3.09-2.26,3-3.93,0-6.25a11.07,11.07,0,0,0-2.62-1.67c-5.07-1.86-10.1-3.9-15.29-5.29a12.86,12.86,0,0,0-7.82.18C76.32,89.24,70.16,92.65,63.89,95.8ZM39.54,88.93v15l11.25-7.51Z"/><path d="M77.6,52.13c-15-.24-29.95-1.17-44.35-5.78a53,53,0,0,1-11.82-5.58,14.34,14.34,0,0,1-4.86-5.87c-1.59-3.35-.33-6.54,2.14-9.18,3-3.19,6.8-5,10.79-6.52,9.13-3.42,18.68-4.93,28.33-5.74a184.83,184.83,0,0,1,47.39,1.68c6.68,1.17,13.31,2.64,19.36,5.8a29.6,29.6,0,0,1,7.17,5.16c3.49,3.52,3.58,8.58,0,12a34.11,34.11,0,0,1-8.94,6.07c-7.66,3.64-16,5.17-24.32,6.17C91.55,51.17,84.56,51.55,77.6,52.13Zm-6.75-7.46c16,0,27.61-.86,39-3.63,5.28-1.28,10.52-2.78,15-6,2.91-2.06,3-4,0-5.87A44.23,44.23,0,0,0,116.06,25c-9.78-3.37-20-4.63-30.24-5.17-15.36-.81-30.65-.23-45.68,3.39-5.28,1.28-10.52,2.79-15,6.06-2.69,2-2.78,3.84,0,5.58a42.5,42.5,0,0,0,9,4.32C47.46,43.63,61.24,44.6,70.85,44.67Z"/><path d="M96.51,102.34a5.9,5.9,0,1,1,5.95-5.85A5.81,5.81,0,0,1,96.51,102.34Z"/></g></g></svg>