<svg xmlns="http://www.w3.org/2000/svg" viewBox="0 0 196.13 150"><title>1Asset 1</title><g id="Layer_2" data-name="Layer 2"><g id="Layer_1-2" data-name="Layer 1"><path d="M196.13,89.31v6.9a4,4,0,0,0-.35.86,35.89,35.89,0,0,1-6.37,15.41c-6,8.56-13.94,14.86-22.84,20a129.69,129.69,0,0,1-49.24,16.27c-22.78,2.94-44.95.63-66.25-8.23-13.27-5.52-25-13.3-34.08-24.63C9.87,107.05,5.18,97,5,85.52,4.72,69.1,10.87,55.06,21.92,43.07a3.69,3.69,0,0,1,.74-.52c2.15,4.65,4.54,9,3.72,14.3a16.4,16.4,0,0,0,.16,4c2.2,22.65,22.67,40.14,40.22,42.85,8.95,1.38,17.25,0,24-6.43,7-6.57,8.81-15,7.91-24.2C96.89,54.53,80.06,32.46,56.49,29.92c-4.51-.48-8-2.57-11.69-4.69a2,2,0,0,1,.29-.37,6.15,6.15,0,0,1,.66-.37C61.61,16.31,78.43,13.19,96,16a150,150,0,0,1,74.45,34.31c8.8,7.42,16.49,15.88,21.41,26.43C193.75,80.71,194.74,85.1,196.13,89.31Z"/><path d="M0,11.17A9.64,9.64,0,0,1,5.71,5.85a2.19,2.19,0,0,0,1-.95C9.47.28,14.17-1.27,18.42,1.09S23.87,8.34,21.34,13c-.08.17-.14.35-.24.59A68.43,68.43,0,0,0,36,26.43c5.65,3.7,11.47,7.14,17.32,10.51a12.31,12.31,0,0,0,4.59,1C76.43,40.05,92.6,58.37,92.31,77,92.1,90.39,81.29,99.4,68,98c-15.2-1.6-35.51-17.8-34.33-40.46a9.87,9.87,0,0,0-.78-4.22c-4.34-10.24-9.16-20.21-16-29.08-1-1.25-2-2.43-2.7-3.23-2.5.55-4.63,1.42-6.74,1.4-3.6,0-5.92-2.34-7.42-5.49Z"/></g></g></svg>