<svg xmlns="http://www.w3.org/2000/svg" viewBox="0 0 68.55 150"><defs><style>.cls-1{fill:#fff;}</style></defs><title>1Asset 33</title><g id="Layer_2" data-name="Layer 2"><g id="Layer_1-2" data-name="Layer 1"><path class="cls-1" d="M0,73.24c.59-2.4,1.13-4.81,1.78-7.19C4.54,55.93,9.18,46.86,17,39.7a37.17,37.17,0,0,1,16-9,14.93,14.93,0,0,1,5.2-.35c4.17.51,7,3.88,7.73,8.74a21.3,21.3,0,0,1-.55,7.83c-.9,4.19-1.66,8.41-2.83,12.74-.54-1.68-1.18-3.34-1.61-5a23.87,23.87,0,0,1-.25-9.15,6.67,6.67,0,0,0-7.26-7.65,6.48,6.48,0,0,0-6,5.54c-2.09,13.77,2,25.23,13,34,1.15.93,1.85,1.84,1.63,3.28-.27,1.87.53,3.16,1.8,4.48,5,5.19,9.92,10.51,14.89,15.75a10.38,10.38,0,0,1,2.71,5.24q3.3,16.58,6.67,33.12c.08.38.22.74.32,1.11v2.93c-.71,1.94-1.51,3.87-3.35,5A33.26,33.26,0,0,1,60.94,150H59.77c-4.84-.91-7-4-7.9-8.71-1.8-9.78-3.85-19.5-5.86-29.23A4.53,4.53,0,0,0,44.88,110q-10.77-11.57-21.63-23c-2.12-2.25-3.89-4.79-4.2-7.87-.53-5.17-.91-10.38-1-15.58A92.41,92.41,0,0,1,19,53.39l-.36-.18A100,100,0,0,0,13.89,63a103.86,103.86,0,0,0-3.34,11.93c-.85,3.56-3.41,5.52-6.61,4.75-2-.49-3.09-2-3.94-3.78Z"/><path class="cls-1" d="M51,0c1,.2,2.1.35,3.14.61a14.76,14.76,0,1,1-5.3-.38,8.2,8.2,0,0,0,1-.23Z"/><path class="cls-1" d="M28.32,49.36c.23-1.93.36-3.88.71-5.79a5.16,5.16,0,0,1,5.74-4.28A5.07,5.07,0,0,1,39.28,45a29.12,29.12,0,0,0,.4,10.61C41.57,63.08,46.47,68,53.29,71.22a66,66,0,0,0,6.83,2.57c3.15,1.06,4.78,3.76,3.9,6.66s-3.75,4.28-6.94,3.36c-7.22-2.09-13.84-5.3-19.18-10.73C31.45,66.52,28.54,58.5,28.32,49.36Z"/><path class="cls-1" d="M23.23,89.08l8.17,8.67c2.67,2.85,5.37,5.67,8,8.56a3.76,3.76,0,0,1,.88,2c.2,2.52.3,5.06.37,7.6a8.34,8.34,0,0,1-1.77,5.31c-6.4,8.43-12.77,16.88-19.22,25.27a8.16,8.16,0,1,1-13-9.89c5.41-7.22,10.89-14.39,16.37-21.55a4.49,4.49,0,0,0,1-3.19c-.33-6.19-.59-12.38-.84-18.57C23.18,92,23.23,90.71,23.23,89.08Z"/></g></g></svg>