<svg xmlns="http://www.w3.org/2000/svg" viewBox="0 0 153.5 150"><title>1Asset 26</title><g id="Layer_2" data-name="Layer 2"><g id="Layer_1-2" data-name="Layer 1"><path d="M144.47,55.67v5c0,13.83.12,27.67,0,41.5A18.49,18.49,0,0,1,135,118.7c-5,3-10.1,6-15.16,8.91-11.23,6.57-22.44,13.18-33.7,19.69a17.75,17.75,0,0,1-18.86,0q-24.54-14.26-49-28.67A17.93,17.93,0,0,1,9.05,102.8C8.81,87.38,9,71.94,9,56.51c0-.2,0-.4.06-.82.67.39,1.23.7,1.79,1Q39.14,73.89,67.45,91A17.06,17.06,0,0,0,86,91c19.09-11.47,38.11-23.06,57.16-34.6C143.51,56.2,143.86,56,144.47,55.67Zm-81,73.7c0-7.91,0-15.44,0-23A2.46,2.46,0,0,0,62.15,104Q42.47,92,22.83,79.87c-.46-.28-.94-.54-1.64-.93v1.78c0,7,0,14,0,21a2.58,2.58,0,0,0,1.41,2.58c10.24,6.21,20.44,12.49,30.65,18.75Z"/><path d="M76.67,84.93a19.19,19.19,0,0,1-9.18-2.55Q35.83,63.47,4.15,44.6a13.88,13.88,0,0,1-2.7-2,4.11,4.11,0,0,1,.26-6.47,12.59,12.59,0,0,1,2.46-1.58C25.31,23.74,46.42,12.91,67.62,2.25a19.54,19.54,0,0,1,18.25,0c21.19,10.67,42.31,21.48,63.44,32.27a10.63,10.63,0,0,1,3.16,2.4,3.69,3.69,0,0,1-.18,5.3,10.94,10.94,0,0,1-2.49,2Q117.68,63.47,85.54,82.62A18.27,18.27,0,0,1,76.67,84.93ZM39.85,49.38c.59.47.81.68,1.06.84,10.07,6,20.11,12.07,30.25,18a10.73,10.73,0,0,0,11.19,0c10.09-5.87,20.08-11.91,30.11-17.9a9.57,9.57,0,0,0,1-.88Zm-.06-10.44.22.36c.46-.2.92-.38,1.37-.59,8.24-4,16.44-8,24.72-11.82a24.25,24.25,0,0,1,21.27,0c8.23,3.84,16.4,7.83,24.59,11.76.46.22.94.4,1.41.6a39.89,39.89,0,0,0-4.82-4.16C101.2,29.56,93.83,24,85.8,19.46c-6.11-3.49-12.22-3.58-18.22.08-4.74,2.89-9.41,5.91-14,9.09C48.91,31.93,44.39,35.5,39.79,38.94Z"/></g></g></svg>